<svg id="placeholder" xmlns="http://www.w3.org/2000/svg" width="100" height="100" viewBox="0 0 100 100">
  <metadata><?xpacket begin="﻿" id="W5M0MpCehiHzreSzNTczkc9d"?>
<x:xmpmeta xmlns:x="adobe:ns:meta/" x:xmptk="Adobe XMP Core 5.6-c140 79.160451, 2017/05/06-01:08:21        ">
   <rdf:RDF xmlns:rdf="http://www.w3.org/1999/02/22-rdf-syntax-ns#">
      <rdf:Description rdf:about=""/>
   </rdf:RDF>
</x:xmpmeta>
                                                                                                    
                                                                                                    
                                                                                                    
                                                                                                    
                                                                                                    
                                                                                                    
                                                                                                    
                                                                                                    
                                                                                                    
                                                                                                    
                                                                                                    
                                                                                                    
                                                                                                    
                                                                                                    
                                                                                                    
                                                                                                    
                                                                                                    
                                                                                                    
                                                                                                    
                                                                                                    
                           
<?xpacket end="w"?></metadata>
<defs>
    <style>
      .cls-1 {
        fill: #1e1c22;
      }

      .cls-2 {
        fill: #fff;
        fill-rule: evenodd;
      }
    </style>
  </defs>
  <rect class="cls-1" width="100" height="100"/>
  <path id="PLACEHOLDER_ICON" data-name="PLACEHOLDER ICON" class="cls-2" d="M1674.64,1195.39a4.719,4.719,0,0,0,1.48-.21,2.965,2.965,0,0,0,1.05-.59,2.371,2.371,0,0,0,.63-0.9,3.245,3.245,0,0,0,.01-2.27,2.329,2.329,0,0,0-.61-0.88,3.1,3.1,0,0,0-1.05-.57,5.212,5.212,0,0,0-1.51-.2h-2.82v8.67h1.61v-3.05h1.21Zm-1.21-4.37h1.21a2.593,2.593,0,0,1,.78.1,1.532,1.532,0,0,1,.55.3,1.394,1.394,0,0,1,.32.48,1.81,1.81,0,0,1,.11.63,2,2,0,0,1-.11.67,1.217,1.217,0,0,1-.33.5,1.357,1.357,0,0,1-.55.32,2.506,2.506,0,0,1-.77.11h-1.21v-3.11Zm7.91-1.25h-1.61v8.67h5.08v-1.33h-3.47v-7.34Zm9.13,0h-1.65l-3.41,8.67h1.26a0.481,0.481,0,0,0,.34-0.11,0.618,0.618,0,0,0,.19-0.25l0.65-1.77h3.59l0.65,1.77a0.63,0.63,0,0,0,.2.26,0.511,0.511,0,0,0,.34.1h1.25Zm-1.15,2.52c0.05-.13.1-0.28,0.15-0.46s0.11-.36.17-0.57c0.06,0.21.11,0.4,0.17,0.57s0.11,0.32.16,0.45l1.06,2.89h-2.77Zm11.5,4.14a0.381,0.381,0,0,0-.13.09,2.2,2.2,0,0,1-.4.3,2.028,2.028,0,0,1-.42.2,3.333,3.333,0,0,1-.5.12,5.152,5.152,0,0,1-.59.03,2.7,2.7,0,0,1-1.03-.2,2.491,2.491,0,0,1-.84-0.6,3,3,0,0,1-.56-0.96,3.772,3.772,0,0,1-.21-1.3,3.988,3.988,0,0,1,.2-1.3,2.66,2.66,0,0,1,.54-0.96,2.273,2.273,0,0,1,.83-0.6,2.78,2.78,0,0,1,1.06-.2,2.69,2.69,0,0,1,.6.05,2.351,2.351,0,0,1,.46.12,1.9,1.9,0,0,1,.35.17c0.1,0.06.19,0.11,0.27,0.16a1.2,1.2,0,0,0,.21.13,0.4,0.4,0,0,0,.39,0,0.489,0.489,0,0,0,.12-0.13l0.54-.75a3.934,3.934,0,0,0-1.25-.82,4.73,4.73,0,0,0-3.42.02,4.014,4.014,0,0,0-1.36.91,4.136,4.136,0,0,0-.87,1.41,4.875,4.875,0,0,0-.32,1.79,5.4,5.4,0,0,0,.29,1.78,4.183,4.183,0,0,0,.84,1.4,3.873,3.873,0,0,0,1.32.92,4.354,4.354,0,0,0,1.74.33,4.523,4.523,0,0,0,1.85-.35,3.525,3.525,0,0,0,1.3-1l-0.64-.69A0.323,0.323,0,0,0,1700.82,1196.43Zm2.6-6.66v8.67h5.47v-1.29h-3.85v-2.45h3.03v-1.24h-3.03v-2.41h3.85v-1.28h-5.47Zm14.69,0h-1.62v3.73h-4.07v-3.73h-1.62v8.67h1.62v-3.79h4.07v3.79h1.62v-8.67Zm10.54,3.12a4.1,4.1,0,0,0-.41-1.06,4.157,4.157,0,0,0-.65-0.89,3.637,3.637,0,0,0-.88-0.68,4.063,4.063,0,0,0-1.07-.43,4.481,4.481,0,0,0-1.24-.16,4.532,4.532,0,0,0-1.79.34,4.024,4.024,0,0,0-2.29,2.33,5.028,5.028,0,0,0,0,3.53,4.078,4.078,0,0,0,2.29,2.34,5.047,5.047,0,0,0,3.59,0,4.044,4.044,0,0,0,1.39-.93,4.181,4.181,0,0,0,.89-1.41A5.244,5.244,0,0,0,1728.65,1192.89Zm-1.7,2.5a2.794,2.794,0,0,1-.54.96,2.473,2.473,0,0,1-.86.6,3.226,3.226,0,0,1-2.29,0,2.3,2.3,0,0,1-.86-0.6,2.52,2.52,0,0,1-.55-0.96,3.951,3.951,0,0,1-.2-1.28,3.864,3.864,0,0,1,.2-1.28,2.641,2.641,0,0,1,.55-0.97,2.3,2.3,0,0,1,.86-0.6,3.226,3.226,0,0,1,2.29,0,2.473,2.473,0,0,1,.86.6,2.94,2.94,0,0,1,.54.97,3.873,3.873,0,0,1,.19,1.28A3.956,3.956,0,0,1,1726.95,1195.39Zm5.36-5.62h-1.61v8.67h5.08v-1.33h-3.47v-7.34Zm12.49,2.58a4.131,4.131,0,0,0-.9-1.37,3.957,3.957,0,0,0-1.38-.89,4.929,4.929,0,0,0-1.8-.32h-3.31v8.67h3.31a4.929,4.929,0,0,0,1.8-.31,3.979,3.979,0,0,0,1.38-.9,4.032,4.032,0,0,0,.9-1.37,4.735,4.735,0,0,0,.31-1.75A4.788,4.788,0,0,0,1744.8,1192.35Zm-1.53,3.04a2.657,2.657,0,0,1-.55.96,2.3,2.3,0,0,1-.86.6,2.968,2.968,0,0,1-1.14.21h-1.69v-6.11h1.69a2.968,2.968,0,0,1,1.14.21,2.216,2.216,0,0,1,.86.61,2.657,2.657,0,0,1,.55.96,3.873,3.873,0,0,1,.19,1.28A3.956,3.956,0,0,1,1743.27,1195.39Zm3.75-5.62v8.67h5.47v-1.29h-3.85v-2.45h3.03v-1.24h-3.03v-2.41h3.85v-1.28h-5.47Zm9.68,5.28a0.815,0.815,0,0,1,.36.07,0.6,0.6,0,0,1,.23.22l1.82,2.78a0.641,0.641,0,0,0,.6.32h1.46l-2.17-3.2a1.671,1.671,0,0,0-.53-0.5,2.881,2.881,0,0,0,.81-0.38,2.48,2.48,0,0,0,.6-0.56,2.314,2.314,0,0,0,.38-0.71,2.775,2.775,0,0,0,.12-0.83,2.6,2.6,0,0,0-.19-1.01,2.054,2.054,0,0,0-.59-0.79,2.89,2.89,0,0,0-1.04-.51,5.606,5.606,0,0,0-1.52-.18h-2.64v8.67h1.61v-3.39h0.69Zm-0.69-4.03h1.03a2.053,2.053,0,0,1,1.33.35,1.233,1.233,0,0,1,.44,1.01,1.7,1.7,0,0,1-.11.61,1.293,1.293,0,0,1-.33.48,1.435,1.435,0,0,1-.56.31,2.344,2.344,0,0,1-.79.12h-1.01v-2.88Zm-53.27,13.15h-1.62v8.67h1.62v-8.67Zm8.24,6.66a0.381,0.381,0,0,0-.13.09,2.2,2.2,0,0,1-.4.3,2.028,2.028,0,0,1-.42.2,3.333,3.333,0,0,1-.5.12,5.152,5.152,0,0,1-.59.03,2.7,2.7,0,0,1-1.03-.2,2.491,2.491,0,0,1-.84-0.6,3,3,0,0,1-.56-0.96,3.772,3.772,0,0,1-.21-1.3,3.988,3.988,0,0,1,.2-1.3,2.66,2.66,0,0,1,.54-0.96,2.273,2.273,0,0,1,.83-0.6,2.78,2.78,0,0,1,1.06-.2,2.69,2.69,0,0,1,.6.05,2.351,2.351,0,0,1,.46.12,1.9,1.9,0,0,1,.35.17c0.1,0.06.19,0.11,0.27,0.16a1.2,1.2,0,0,0,.21.13,0.4,0.4,0,0,0,.39,0,0.489,0.489,0,0,0,.12-0.13l0.54-.75a3.934,3.934,0,0,0-1.25-.82,4.73,4.73,0,0,0-3.42.02,4.014,4.014,0,0,0-1.36.91,4.136,4.136,0,0,0-.87,1.41,4.875,4.875,0,0,0-.32,1.79,5.4,5.4,0,0,0,.29,1.78,4.183,4.183,0,0,0,.84,1.4,3.873,3.873,0,0,0,1.32.92,4.354,4.354,0,0,0,1.74.33,4.523,4.523,0,0,0,1.85-.35,3.525,3.525,0,0,0,1.3-1l-0.64-.69A0.323,0.323,0,0,0,1710.98,1210.83Zm10.54-3.54a4.1,4.1,0,0,0-.41-1.06,4.157,4.157,0,0,0-.65-0.89,3.637,3.637,0,0,0-.88-0.68,4.063,4.063,0,0,0-1.07-.43,4.481,4.481,0,0,0-1.24-.16,4.532,4.532,0,0,0-1.79.34,4.024,4.024,0,0,0-2.29,2.33,5.028,5.028,0,0,0,0,3.53,4.078,4.078,0,0,0,2.29,2.34,5.047,5.047,0,0,0,3.59,0,4.044,4.044,0,0,0,1.39-.93,4.181,4.181,0,0,0,.89-1.41A5.244,5.244,0,0,0,1721.52,1207.29Zm-1.7,2.5a2.794,2.794,0,0,1-.54.96,2.473,2.473,0,0,1-.86.6,3.226,3.226,0,0,1-2.29,0,2.3,2.3,0,0,1-.86-0.6,2.52,2.52,0,0,1-.55-0.96,3.951,3.951,0,0,1-.2-1.28,3.864,3.864,0,0,1,.2-1.28,2.641,2.641,0,0,1,.55-0.97,2.3,2.3,0,0,1,.86-0.6,3.226,3.226,0,0,1,2.29,0,2.473,2.473,0,0,1,.86.6,2.94,2.94,0,0,1,.54.97,3.873,3.873,0,0,1,.19,1.28A3.956,3.956,0,0,1,1719.82,1209.79Zm4.59-5.62h-0.84v8.67h1.42v-5.32c0-.11,0-0.22-0.01-0.35s-0.02-.25-0.03-0.38l4.53,5.78a0.776,0.776,0,0,0,.25.21,0.762,0.762,0,0,0,.32.06h0.83v-8.67h-1.42v5.27c0,0.12,0,.24.01,0.38s0.02,0.27.03,0.41l-4.55-5.8a0.87,0.87,0,0,0-.12-0.14,0.444,0.444,0,0,0-.11-0.08,0.5,0.5,0,0,0-.13-0.03,0.972,0.972,0,0,0-.18-0.01h0Z" transform="translate(-1666 -1148)"/>
</svg>
