<?xml version="1.0" encoding="utf-8"?>
<!-- Generator: Adobe Illustrator 23.0.3, SVG Export Plug-In . SVG Version: 6.00 Build 0)  -->
<svg version="1.1" id="Layer_1" xmlns="http://www.w3.org/2000/svg" xmlns:xlink="http://www.w3.org/1999/xlink" x="0px" y="0px"
	 viewBox="0 0 94.7 42.5" style="enable-background:new 0 0 94.7 42.5;" xml:space="preserve">
<style type="text/css">
	.st0{fill:#EBAB17;}
	.st1{fill:#FFFFFF;}
	.st2{fill:#FCC901;}
</style>
<g>
	<polygon class="st0" points="0,8.7 9.1,8.9 9.2,0 	"/>
	<g>
		
			<image style="overflow:visible;opacity:0.75;enable-background:new    ;" width="54" height="37" xlink:href="8093135B.png"  transform="matrix(1 0 0 1 40.6765 4.0588)">
		</image>
		<g>
			<polygon class="st1" points="79.6,36.7 43.5,36.7 43.5,6.7 90.6,6.7 			"/>
		</g>
	</g>
	<g>
		<g>
			<path d="M47.9,24.6h2V18h-1.6v-0.7c0.8-0.1,1.4-0.4,1.9-0.7h0.9v8H53v1h-5.1V24.6z"/>
			<path d="M54.9,24.6h2V18h-1.6v-0.7c0.8-0.1,1.4-0.4,1.9-0.7h0.9v8h1.8v1h-5.1C54.9,25.6,54.9,24.6,54.9,24.6z"/>
			<path d="M61.4,21.1c0-3,1.1-4.6,2.9-4.6c1.8,0,2.9,1.6,2.9,4.6s-1.1,4.7-2.9,4.7S61.4,24.1,61.4,21.1z M66,21.1
				c0-2.6-0.7-3.7-1.8-3.7s-1.8,1.1-1.8,3.7s0.7,3.8,1.8,3.8S66,23.7,66,21.1z"/>
			<path d="M68.4,21.1c0-3,1.1-4.6,2.9-4.6s2.9,1.6,2.9,4.6s-1.1,4.7-2.9,4.7S68.4,24.1,68.4,21.1z M73,21.1c0-2.6-0.7-3.7-1.8-3.7
				s-1.8,1.1-1.8,3.7s0.7,3.8,1.8,3.8S73,23.7,73,21.1z"/>
		</g>
	</g>
	<polygon class="st2" points="9.2,0 43.5,0 43.5,42.5 0,42.5 0,8.7 	"/>
</g>
</svg>
