<svg id="Layer_1" data-name="Layer 1" xmlns="http://www.w3.org/2000/svg" viewBox="0 0 94.7 42.5"><defs><style>.cls-1{fill:#ebab17;}.cls-2{fill:#fff;}.cls-3{fill:#fcc901;}</style></defs><title>a2_post</title><polygon class="cls-1" points="0 25.5 9.1 25.7 9.2 16.8 0 25.5"/><polygon class="cls-2" points="79.6 35.4 43.5 35.4 43.5 5.4 90.6 5.4 79.6 35.4"/><polygon class="cls-3" points="9.2 0 43.5 0 43.5 42.5 0 42.5 0 8.7 9.2 0"/><path d="M49.21,23.85h1.68V19c0-.18,0-.38,0-.59l-1.19,1a.37.37,0,0,1-.15.08l-.16,0a.46.46,0,0,1-.2-.05.33.33,0,0,1-.14-.11l-.45-.61,2.52-2.15H52.3v7.22h1.49v1.06H49.21Z"/><path d="M59.69,21.79h1v.82a.3.3,0,0,1-.08.2.29.29,0,0,1-.21.08h-.75v2H58.45v-2H55a.37.37,0,0,1-.25-.09.35.35,0,0,1-.14-.22l-.14-.71,3.91-5.23h1.34Zm-1.24-2.7c0-.12,0-.25,0-.39s0-.29,0-.44l-2.56,3.53h2.51Z"/><path d="M67.28,20.78A6.48,6.48,0,0,1,67,22.65,3.86,3.86,0,0,1,66.41,24a2.53,2.53,0,0,1-1,.77,2.9,2.9,0,0,1-2.4,0,2.43,2.43,0,0,1-1-.77,3.86,3.86,0,0,1-.63-1.32,6.88,6.88,0,0,1-.23-1.87,6.9,6.9,0,0,1,.23-1.88,3.86,3.86,0,0,1,.63-1.32,2.62,2.62,0,0,1,1-.77,2.9,2.9,0,0,1,2.4,0,2.74,2.74,0,0,1,1,.77A3.86,3.86,0,0,1,67,18.9,6.51,6.51,0,0,1,67.28,20.78Zm-1.46,0a6.86,6.86,0,0,0-.13-1.49,3.37,3.37,0,0,0-.35-.94,1.25,1.25,0,0,0-1.1-.63,1.35,1.35,0,0,0-.59.14,1.3,1.3,0,0,0-.5.49,3.37,3.37,0,0,0-.35.94,7.65,7.65,0,0,0-.12,1.49,7.61,7.61,0,0,0,.12,1.48,3.25,3.25,0,0,0,.35.94,1.3,1.3,0,0,0,.5.49,1.35,1.35,0,0,0,.59.14,1.25,1.25,0,0,0,1.1-.63,3.25,3.25,0,0,0,.35-.94A6.82,6.82,0,0,0,65.82,20.78Z"/><path d="M73.9,20.78a6.51,6.51,0,0,1-.23,1.87A3.87,3.87,0,0,1,73,24a2.43,2.43,0,0,1-1,.77,2.89,2.89,0,0,1-1.21.26,2.8,2.8,0,0,1-1.19-.26,2.43,2.43,0,0,1-1-.77,3.86,3.86,0,0,1-.63-1.32,6.51,6.51,0,0,1-.23-1.87,6.53,6.53,0,0,1,.23-1.88,3.86,3.86,0,0,1,.63-1.32,2.62,2.62,0,0,1,1-.77,2.8,2.8,0,0,1,1.19-.26,2.89,2.89,0,0,1,1.21.26,2.62,2.62,0,0,1,1,.77,3.87,3.87,0,0,1,.64,1.32A6.53,6.53,0,0,1,73.9,20.78Zm-1.45,0a7.55,7.55,0,0,0-.13-1.49,3.08,3.08,0,0,0-.36-.94,1.3,1.3,0,0,0-.5-.49,1.39,1.39,0,0,0-.6-.14,1.34,1.34,0,0,0-.58.14,1.3,1.3,0,0,0-.5.49,3.08,3.08,0,0,0-.35.94,8.55,8.55,0,0,0,0,3,3,3,0,0,0,.35.94,1.3,1.3,0,0,0,.5.49,1.34,1.34,0,0,0,.58.14,1.39,1.39,0,0,0,.6-.14,1.3,1.3,0,0,0,.5-.49,3,3,0,0,0,.36-.94A7.52,7.52,0,0,0,72.45,20.78Z"/><path d="M80.53,20.78a6.51,6.51,0,0,1-.23,1.87A3.87,3.87,0,0,1,79.66,24a2.43,2.43,0,0,1-1,.77,2.92,2.92,0,0,1-1.21.26,2.84,2.84,0,0,1-1.2-.26,2.48,2.48,0,0,1-1-.77,4.06,4.06,0,0,1-.64-1.32,6.9,6.9,0,0,1-.22-1.87,6.93,6.93,0,0,1,.22-1.88,4.06,4.06,0,0,1,.64-1.32,2.68,2.68,0,0,1,1-.77,2.84,2.84,0,0,1,1.2-.26,2.92,2.92,0,0,1,1.21.26,2.62,2.62,0,0,1,1,.77,3.87,3.87,0,0,1,.64,1.32A6.53,6.53,0,0,1,80.53,20.78Zm-1.45,0a6.79,6.79,0,0,0-.14-1.49,2.84,2.84,0,0,0-.35-.94,1.3,1.3,0,0,0-.5-.49,1.39,1.39,0,0,0-.6-.14,1.22,1.22,0,0,0-1.08.63,3.08,3.08,0,0,0-.35.94,8.55,8.55,0,0,0,0,3,3,3,0,0,0,.35.94,1.22,1.22,0,0,0,1.08.63,1.39,1.39,0,0,0,.6-.14,1.3,1.3,0,0,0,.5-.49,2.76,2.76,0,0,0,.35-.94A6.75,6.75,0,0,0,79.08,20.78Z"/></svg>