<?xml version="1.0" encoding="utf-8"?>
<!-- Generator: Adobe Illustrator 23.0.3, SVG Export Plug-In . SVG Version: 6.00 Build 0)  -->
<svg version="1.1" xmlns="http://www.w3.org/2000/svg" xmlns:xlink="http://www.w3.org/1999/xlink" x="0px" y="0px"
	  width="4000px" height="3332px" xml:space="preserve">
<style type="text/css">	
	[data-common="commonSprite"]{fill:rgba(0,0,0,0.0)}
</style>

<g id="supls" data-value="Suppliers" data-label="supls"  data-dual="dual">
	<path class="supls_1"  data-common="commonSprite" d="M1587.06,2542.94c3.53,8.71,26.82,28.71,38.35,38.35c15.76,11.53,45.65,28.24,57.65,31.53
		c18.35,10.12,62.59-18.12,62.59-18.12l26.82-16.47l55.29-37.88l57.18-43.06l38.59-29.18l48-35.76l34.35-24.24l27.53-22.82
		l27.29-26.12l22.35-27.53c0,0,25.65-44,22.82-47.76c6.59-43.76-1.76-56.94-1.76-56.94l-41.76-1.18h-9.88c0,0-5.91,0.06-16.94,2.35
		c-23.29,5.18-31.06,6.35-39.76,8.94c-55.29,9.18-138.06,68.94-138.06,68.94l-98.18,75.29l-53.85,38l-4.03-2.71
		c0,0-18.12-14.82-22.82-17.65c-4.71-2.82-8.47-1.18-8.47-1.18s-63.06,44.94-64.88,46.24s-0.74,2.91-0.74,2.91l-0.62,9.09
		l12.24,19.41c0,0,0.59,12.94,0,13.29c-33.65,27.65-31.65,39.29-31.65,39.29S1585.06,2539.46,1587.06,2542.94z"/>
	<path class="supls_1" style="display:none" data-common="commonSprite" d="M1587.1,2542.9c3.5,8.7,26.8,28.7,38.3,38.4c15.8,11.5,45.7,28.2,57.7,31.5c18.3,10.1,62.6-18.1,62.6-18.1
			l26.8-16.5l55.3-37.9l57.2-43.1l38.6-29.2l48-35.8l34.3-24.2l27.5-22.8l27.3-26.1l22.4-27.5c0,0,25.6-44,22.8-47.8
			c6.6-43.8-9.4-50.4-9.4-50.4l-34.1-7.8h-9.9c0,0-5.9,0.1-16.9,2.4c-23.3,5.2-31.1,6.4-39.8,8.9c-55.3,9.2-104,49.9-104,49.9
			l28.9-28.9c0,0,52.5-55.5,38.8-106.6c-168.5-7.8-331.8,168.7-421.8,218.8c-1.8,1.3-70.2,53.4-90.4,74.8s-8.8,10.6-3.5,22.9
			c19.8,20.1,52.9,35.6,52.9,35.6s43.8,44.5,119.5-15c-30.6,28-31.7,39.3-31.7,39.3S1585.1,2539.5,1587.1,2542.9z"/>	
</g>

<g id="emps" data-value="Employees" data-label="emps"  data-dual="none">
	<polygon class="emps_2" data-common="commonSprite" points="2263.4,2009.4 2372.1,1928.4 2552.5,2045.9 2444.1,2129.2"/>
</g>

<g id="fgw" data-value="Finished Goods Warehouse" data-label="fgw" data-dual="dual">
	<polygon class="fgw_3" data-common="commonSprite" points="2477.2,1612.8 2566.6,1503.6 2649.4,1491.4 2894.6,1642 2894.6,1648.6 2861.2,1655.2 2853.2,1759.6 2853.6,1699.9 2848,1703.2 2807.5,1730.7 2807.5,1742 2721.2,1803.1 2564.7,1714.5 2508.2,1677.8 2510.1,1635.4"/>
	<polygon class="fgw_3" data-common="commonSprite" style="display:none" points="2558.8,1717.1 2501.2,1679.6 2503.1,1633.6 2505,1610 2637.4,1515.2 2649.4,1491.4 2885.7,1636.5 2875.8,1659.4 2854.2,1645.6 2850,1704.2 2712.5,1809.1"/>	
</g>

<g id="rmw" data-value="Raw Materials Warehouse" data-label="rmw" data-dual="dual" transform="translate(5 -10)">
	<polygon class="rmw_4"  data-common="commonSprite" points="1641.6,1840.1 1809.9,1725.1 1902,1738.5 1996.2,1848.9 1886.6,1927.6 1886.9,1957.8 1828.7,1993.1 1677.2,1894.2 1676.2,1851.8 1643,1847.4"/>
	<path class="rmw_4"  style="display:none" data-common="commonSprite" d="M1825.6,1950.2l12,7.1l30.1-17.9c4.9-6.6,20.8-22.9,27.1-26.8c8.6-5.7,55.1-39.3,55.1-39.3s5-17.6,5.4-25.2
		l-90.8-62.1l-59.9-38.7l-135.5,92.1l-0.4,16.6l-24.7-28.6l-171.9,117.5l-2.5,3.2l94.2,112.2l93.2,18.4l170.5-121.4L1825.6,1950.2z"
		/>
</g>

<g id="asslines1_5" data-value="Assembly Lines" data-label="asslines1_5" data-dual="none">
	<path class="asslines1_5"  data-common="commonSprite" d="M1958.1,1727.9l135.9-93.5l137.3,88.2c0,0-14.1,16.9-18,22.2c-8.1,5.6-109.8,78-109.8,78L1958.1,1727.9z"/>
</g>

<g id="asslines2_5" data-value="Assembly Lines" data-label="asslines2_5" data-dual="none">
	<polygon class="asslines2_5"  data-common="commonSprite" points="2114.1,1620.2 2239.4,1533.4 2383.4,1624.1 2285.3,1695.1 2269.1,1698.2 2250.4,1710.6 2232.4,1700 2212.9,1696.5 2119.1,1636.5"/>
</g>

<g id="asslines3_5" data-value="Assembly Lines" data-label="asslines3_5" data-dual="none">
	<polygon class="asslines3_5"  data-common="commonSprite" points="2114.1,1828.8 2250.4,1733.5 2394.4,1827.4 2260.2,1924.8 2217.2,1895.2 2204.1,1903.3 2146.9,1865.5 2146.6,1850.7"/>
</g>

<g id="asslines4_5" data-value="Assembly Lines" data-label="asslines4_5" data-dual="none">
	<path class="asslines4_5"  data-common="commonSprite" d="M2266.9,1721.2l127.8-89.6l145.1,91.1l-28.9,21.5l-0.4,14.8l-50.1,35.6l-9.9-6l-44.1,31.1l-117.5-75.2
		C2288.8,1744.5,2271.9,1725.1,2266.9,1721.2z"/>
</g>

<g id="cash" data-value="Cash" data-label="cash" data-dual="none" transform="translate(12,-7)">
	<polygon class="cash_6"  data-common="commonSprite" points="1751.5,1642.9 1979.8,1489.1 2084.2,1557.4 1856.5,1714"/>
</g>

<g id="post" data-value="Post-it" data-label="post" data-dual="none" transform="translate(10,0)">
	<polygon class="post_7"  data-common="commonSprite" points="2140,1400.4 2197.9,1361.1 2258.1,1398.7 2258.1,1417.5 2200.9,1457.3 2140,1419.9"/>
</g>

<g id="accspay" data-value="Accounts Payable" data-label="accspay" data-dual="none">
	<path class="accspay_8"  data-common="commonSprite" d="M1504,1550l68-44.7c0,0,1.6-0.9,0-6.4s-4.2-17.9-3.8-22.8c1.2-1.2,7.3-5.6,7.3-5.6l12-8.1c0,0,4.9-2.4,7.2-0.9
		c2.2,1.4,2.7,1.9,2.9,6c0.2,4.1,1.8,13.6,3.1,16.4c0.8,1.4,1.5,1.2,1.5,1.2l20.5-12.8l1.6-1.1l16.5,10.9l10.6-6.4
		c0,0,2.8-2.1,8.2,1.4c5.4,3.5,35.6,23,35.6,23s4.3,3.9,3.4,6.5c3.4,2.2,78.6,55.8,78.6,55.8l-135.3,91.5l-136-89.6L1504,1550z"/>
</g>

<g id="bankdt" data-value="Bank Dept" data-label="bankdt" data-dual="none">
	<path class="bankdt_9"  data-common="commonSprite" d="M1644,1458.7l66.8-44l1.2-2.6c0,0-5.9-19.9-4.7-27.4c2.6-2,7.3-5,7.3-5l16.2-11.1c0,0,6,3.3,6.2,6.4
		c0.2,3.1,0.6,15,1.9,17.7c1.1,1.6,1.8,2,1.8,2l19.9-12.8l16.8,10.4l10.2-6.4c0,0,3.4-3.3,11.4,1.8c8.1,5.1,34.9,22.7,34.9,22.7
		s2.3,2.6,2,6.2c6,3.9,81.6,52.5,81.6,52.5l-136.7,91.5l-82.4-54.1c0,0,0.5-4.7-6.8-8.9c-7.3-4.2-33.8-21.5-33.8-21.5
		s-3.3-1.8-6.6-0.4c-3.3-1.8-5.5-3.9-5.5-3.9L1644,1458.7z"/>
</g>

<g id="equity" data-value="Equity" data-label="equity" data-dual="none">
	<path class="equity_10"  data-common="commonSprite" d="M1780.9,1368.6l65.6-43.4c0,0,1.5-1.6,0-6c-1.5-4.4-3.6-15.9-3.4-23.2c5.6-4.1,7.5-5.2,7.5-5.2l12.5-8.3
		c0,0,1.9-2.8,4.9-0.9s4.4,3,4.4,9.4s0.9,9.5,0.9,9.5l1.4,4.6l0.7,0.9l19.1-12l16.4,10.8l10.9-6.9c0,0,4.7-2.9,12.4,1.7
		c7.7,4.6,35.8,22.6,35.8,22.6s1.9,4.3,0,6.4c-1.1,1-1.1,1-1.1,1l0.7,1.8l15.8,10.1c0,0,3.4-0.9,5.3,2.8
		c5.1,3.5,57.7,36.8,57.7,36.8l-130.8,88l-81.6-52.5c0,0,0.1-4.2-2-6.2s-37.9-24.6-37.9-24.6s-4.1-1.9-8.5,0.1
		c-3.2-2.1-4.8-3.4-4.8-3.4L1780.9,1368.6z"/>
</g>

<g id="accsrec" data-value="Accounts Receivable" data-label="accsrec" data-dual="none">
	<path class="accsrec_11"  data-common="commonSprite" d="M1922.4,1297.1c2.3-0.1,8.2,0.2,8.2,0.2s35.3,21.2,38.4,23.5c3.1,2.4,1.9,7.8,1.9,7.8l80.9,50.4l129.9-88.2
		c0,0-64-40.2-77.4-49.2c2.8-3.1,0-8.5,0-8.5s-29.2-17.9-31.5-18.4c-2.4-0.5-0.9-0.7-5.6-4c-4.7-3.3-13.4,0.5-13.4,0.5l-17.2,11.5
		c0,0-12.4,7.9-16.8,10.7c-3.2-1.9-9.4-1.4-9.4-1.4s-0.2-1.1-0.3-5.3c1.4-4.1-1.9-15.5-1.9-15.5l-1.9-15l-4.9-3.2l-4.2,2.1
		l-11.5,7.9c0,0-5.5,3.5-6.4,5.5c-0.4,9.5,3.5,27,3.5,27l-1.2,1.4l-66,44.1C1915.4,1281.1,1913.4,1297.3,1922.4,1297.1z"/>
</g>

 <g id="shareholds" data-value="Shareholders" data-label="shareholds" data-dual="none" transform="translate(-20 10)">
	<path class="shareholds_12"  data-common="commonSprite" d="M1277.3,974.7L1448.6,872c0,0,5.6-1.6,12.9,2.5c7.2,4.1,160.5,100.2,160.5,100.2l-0.3,11.7l20.4,16.6
		l-167.4,104.5c0,0-8,2.6-15-1.8c-7-4.4-9-5.6-9-5.6s-2.9,2.6-7,0.7c-4.1-1.9-4-2.4-4.7-5c-2.6-0.1-3.2-0.5-3.2-0.5l-0.3-4.6
		L1277.3,990c0,0-1-1.2-0.9-4.5s0-9.4,0-9.4L1277.3,974.7z"/>
</g>

<g id="bank" data-value="Bank" data-label="bank" data-dual="dual">
	<path class="bank_13"  data-common="commonSprite" d="M1744.76,763.65l6.53,3.88l-0.71,7.06l20.82,12l5.29-3.88l7.06,4.94V794l29.29,17.65l5.65-4.24l6.88,4.94
		l-0.88,6.18l21.18,12.35l6.71-3.35l6.71,5.06l-1.53,1.18l0.24,12.35c0,0,5.06,2.59,8,5.29c2.94,2.71,0,6.71,0,6.71v9.29
		c0,0-150,92.82-159.18,98.82c-9.18,6-14.82,3.18-14.82,3.18s-181.41-110.71-186.35-114.35c-1.88-8.47,0-15.76,0-15.76l7.53-4.35
		l-0.24-11.65l-1.29-0.71l-0.47-1.41l6.59-3.76l7.06,3.76l12.47-7.06l-1.76-44.35l36.94-21.88l0.68-15.65l-2.46-2.3l-0.45-4.58
		l78-46.41c0,0,1.41,0.09,5.56,2.38c4.15,2.29,15.44,9.88,15.44,9.88l13.15-8.91l36.26,22.32l-1.85,1.94l21.46,13.6l0.68,40.57
		l4.06,2.03L1744.76,763.65z"/>
	<path class="bank_13"  data-common="commonSprite" style="display:none" d="M1498.1,842.5l162.8-97.9c0,0,5.4-3.8,14.1,1c8.7,4.8,180.7,108.1,180.7,108.1s1.2,1.4,1.6,6.2
		c0.4,4.8,0,9.4,0,9.4l-7.9,6l1.1,12.5l-6.4,3l-6.3-3.4l-12.7,8.9l0.5,42.3l-36.9,22.3v16.1l2.8,1.8l-0.9,1.4l-0.1,3.1l-76.5,47.8
		l-19.2-11.8l-14,9.5l-37-24.2l-22.1-18.1l0.9-37.1l-4.1-2.6l-8.3-4.4l0.7-7.7l-19.8-11.7l-5.6,4.1l-7.2-4.4l0.7-7.5l-28.4-17.7
		l-5.6,3.8l-7.2-4l0.2-7.5l-19.6-11.6l-6.7,3.9l-6.1-4.2l-0.1-14.4l-8.6-5.7v-10.2C1496.8,847.4,1495.5,844,1498.1,842.5z"/>	
</g>

<g id="tax" data-value="Taxes" data-label="tax" data-dual="dual">
	<path class="tax_14" data-common="commonSprite" d="M1745.9,694.1l73.2-44.1c0,0-8.9-10.7-8.6-34.6c0.7-7.5,3.2-19.3,22.2-23.1c15.5-9.4,23.5-15.5,23.5-15.5
		s2.9-3.4,7.9-4.4c4.8-2.8,11.4-9.3,11.4-9.3l-8.7-1.8c0,0-1.2-2.9,0.7-4.1s5.5-2.6,11.1-1.8s8.4,1.9,8.4,1.9l16.2-7.5l20.5-14.7
		c0,0,3.8-5.8,14-3.9c10.2,1.9,12.2-1.9,10.4,10.2c-1.9,12.1-10.7,55.1-10.7,55.1l-2.2,2.5l13.6,8.1l48,27.6l-3.9,18.4l94.6,55.8
		c0,0,4.6,1.2,4.6,6.5s0,10.8,0,10.8l-37.2,23.5L1934.5,824c0,0-6.9,5.3-17.3-1.4c-10.4-6.7-76.2-44.8-76.2-44.8l-85.9-51.2
		l-18.9-11.5c0,0,0-1.6,0-5.6s-1.4-9,1.8-10.8C1741.1,696.9,1745.9,694.1,1745.9,694.1z"/>
	<path class="tax_14" data-common="commonSprite" style="display:none" d="M1729.9,702.9l156.1-93.9c0,0,6.4-4.4,13.5-0.8c7.1,3.6,180.8,104.3,180.8,104.3s3.6,0.9,3.9,7.1
		c0.2,6.1,0,8.8,0,8.8s0.5,1.3-4.2,4.2c-4.7,2.9-77.1,47.3-77.1,47.3s8.5,17.4,7.1,30.8c-1.4,13.4-16.9,22.8-16.9,22.8h-4.9
		l-16,10.4c0,0-4.1,7.8-13.2,8.9c-2,0.4-8,4.5-8,4.5s0.7,2.1-1.2,3.1c-1.9,0.9-4.7,2.6-4.7,2.6s10.4,0,9.1,5.2
		c-1.3,5.2-16.2,3.2-18.9,0c-2.8,2.6-6.6,4.9-10.9,5.8c-6.4,3.9-15.5,9.3-15.5,9.3s-2.8,6.6-11.1,10c-4,1.8-11.8,4.8-25.2-1.2
		c2.1-11.2,12.2-61.1,12.2-61.1l-27.1-16.9c0,0-6,0.5-8.1-0.2s-1.4-4.2-1.4-4.2l-24.5-15.8l3.5-17.4l-98.5-59.3l0.1-13.4
		L1729.9,702.9z"/>
</g>

<g id="services" data-value="Services" data-label="bank" data-dual="none">
	<path class="services_15" data-common="commonSprite" d="M2049.2,914.5l-19.5-11.8l1.4-9.4l0.2-2.6l-24.9-15.8v-9.7c0,0-1.6-4.9,1.4-6.9c3.1-2,9-5.6,9-5.6l0.3-2.8
		l76.9-48.2c0,0,4.8-21,25.9-36.5c0.9-1.6,7.8-12.5,25.6-3.2c0.5-3.9,0.5-3.9,0.5-3.9l24.6-16.5v-18.2l-2-0.6l-0.6-3.9h2.6v-4h4.5
		v2.4l1.8,0.9v3.1l-2.4,2.1l-0.5,18.1l10.2,5.8v-15.9l-2-2.8l-0.1-1.5l2.1,0.1v-2.8l0.9-1.8l2.9,0.5v1.8l2.1,0.7l0.8,2.4l-1.1,1.3
		l-1.1,14.2l11.5,5.3l1.9-65.2c0,0-3.7-6.7,7.4-4.5c0.2-2.1-0.8-7.7,9.3-3.8c-0.1,4.1-0.5,37.2-0.5,37.2l0.1,30.3l0.4,34.3l2.4,0.9
		v2.5l4.6,1.6v1.8l133.6,77.6v4l9.6,5.6c0,0,0.2,2.2,0,6.3s0.1,8.6,0.1,8.6l-36.7,24.6l-121.1,78c0,0-7.8,5.2-15.5,0
		s-31.4-19-31.4-19l-9.9,6.4l-27.5-15.2l-29.6-17.6l-33.9-19.8L2049.2,914.5z"/>
</g>

<g id="propagt" data-value="Property Agent" data-label="propagt" data-dual="dual">
	<path class="propagt_16"  data-common="commonSprite" d="M2267.5,1012.6l69.2-44.9V959h2.3v4.1h3.8l27.9-18.1l2.1-61.5c0,0-1.2-4.1,13.8-13.5
		c14.9-9.4,63.1-40.9,63.1-40.9s1.4-0.7,8.2,3.3s147.4,84.3,147.4,84.3l-1,40l-6.7,3.6l-2.2,38.8l4.7,2.8l6.1-4.2l6.8,4.7v8.5
		l25.2,15.3v14.6L2480.9,1146c0,0-9.4,6.1-19.8-3.3c-12.7-6.1-193.6-112.9-193.6-112.9V1012.6z"/>
	<path class="propagt_16"  data-common="commonSprite" style="display:none" d="M2293.3,1139.4l1.4-38.4l3.8-3.6l1.1,0.5l0.7-40.5l-5.8-3.5l-5.2,4l-6.4-3.3l0.8-8.7l-23.4-13.9
		c0,0-1.1-1.9-0.9-5.8c0.1-3.9-1.3-9.2,1.3-10.9c2.6-1.8,123.9-80.7,123.9-80.7l33.3-21.1c0,0,5.1-3.4,14.4,1.4
		c9.3,4.8,85.8,49.3,85.8,49.3l1.1,0.5l108.8,62.9c0,0,1.8,0,1.6,7.9c-0.2,7.9-1.4,9-1.4,9l-103.6,70.2l-0.1,23.5l-0.8,0.9l-0.1,6.6
		l-1,28.9c0,0-1.9,3.3-4.4,5.4c-2.5,2.1-71.6,48.6-71.6,48.6s-0.7,0.7-3.6-0.7S2293.3,1139.4,2293.3,1139.4z"/>	
</g>

<g id="cust" data-value="Customers" data-label="cust" data-dual="dual">
	<path class="cust_17" data-common="commonSprite" d="M2548.5,1174.7l8.1-5.3v-7.3l58.8-39.6l1.6-43.1l8.6-4.4v-9.5l11.4-7.4l5.9-4.5l0.6-19.1l50.8-33.3l15.2,8.2
		l16.8-11.8l162.4,93.2v12l7.6,2.6l-2.1,40.6l-13.8,9.5l34.1,19.1v9.1l9.7,7.4l-0.7,6.4l-0.5,8.8l-158.6,111.8c0,0-4.2,2.8-13.6-2.8
		c-9.4-5.6-205.8-122.9-205.8-122.9V1179L2548.5,1174.7z"/>
	<path class="cust_17" data-common="commonSprite" style="display:none" d="M2562.8,1277.5l1.4-43.2l0.8-12.1l-17.1-10.6l0.7-8.8l-11.6-7.8c0,0,0.1-11.1,0.6-12.5
		c0.5-1.4,1.5-3.8,4.5-5.6s106.5-71.8,106.5-71.8l46.7-32.1c0,0,7.3-2.4,14.2,1.2c6.9,3.5,94,54,94,54l109.6,62.8
		c0,0,2.5,1.6,2.6,9.3c0.1,7.6,0,8.4,0,8.4l-12.1,8.6l0.2,6.2l-61.9,43.6l-0.7,2.5l-6.4,4.8l-0.4,9.1l-9.3,6.6l13.4,9.1l0.1,4.5
		l-10.2,8.1l-0.2,6l-24.7,17.6v7.3l-24.2,16.1l-108-62.6l-5.3,4.2l11.3,46.2L2562.8,1277.5z"/>
</g>

</svg>
