<?xml version="1.0" encoding="utf-8"?>
<!-- Generator: Adobe Illustrator 23.0.3, SVG Export Plug-In . SVG Version: 6.00 Build 0)  -->
<svg version="1.1" id="Layer_1" xmlns="http://www.w3.org/2000/svg" xmlns:xlink="http://www.w3.org/1999/xlink" x="0px" y="0px"
	 viewBox="0 0 94.7 42.5" style="enable-background:new 0 0 94.7 42.5;" xml:space="preserve">
<style type="text/css">
	.st0{fill:#EBAB17;}
	.st1{fill:#FFFFFF;}
	.st2{display:none;}
	.st3{display:inline;}
	.st4{fill:#FCC901;}
	.st5{display:none;enable-background:new    ;}
	.st6{font-family:'MyriadPro-Bold';}
	.st7{font-size:13.4968px;}
</style>
<g>
	<polygon class="st0" points="0,25.5 9.1,25.7 9.2,16.8 	"/>
	<g>
		<g>
			<polygon class="st1" points="79.6,35.4 43.5,35.4 43.5,5.4 90.6,5.4 			"/>
		</g>
	</g>
	<g class="st2">
		<g class="st3">
			<path d="M47.9,24.6h2V18h-1.6v-0.7c0.8-0.1,1.4-0.4,1.9-0.7h0.9v8H53v1h-5.1V24.6z"/>
			<path d="M54.9,24.6h2V18h-1.6v-0.7c0.8-0.1,1.4-0.4,1.9-0.7h0.9v8h1.8v1h-5.1C54.9,25.6,54.9,24.6,54.9,24.6z"/>
			<path d="M61.4,21.1c0-3,1.1-4.6,2.9-4.6s2.9,1.6,2.9,4.6s-1.1,4.7-2.9,4.7S61.4,24.1,61.4,21.1z M66,21.1c0-2.6-0.7-3.7-1.8-3.7
				s-1.8,1.1-1.8,3.7s0.7,3.8,1.8,3.8S66,23.7,66,21.1z"/>
			<path d="M68.4,21.1c0-3,1.1-4.6,2.9-4.6s2.9,1.6,2.9,4.6s-1.1,4.7-2.9,4.7S68.4,24.1,68.4,21.1z M73,21.1c0-2.6-0.7-3.7-1.8-3.7
				s-1.8,1.1-1.8,3.7s0.7,3.8,1.8,3.8S73,23.7,73,21.1z"/>
		</g>
	</g>
	<polygon class="st4" points="9.2,0 43.5,0 43.5,42.5 0,42.5 0,8.7 	"/>
</g>
<text transform="matrix(0.8891 0 0 1 47.6504 25.2119)" class="st5 st6 st7">14000</text>
<g class="st2">
	<path class="st3" d="M50.5,18.3L50.5,18.3L49,19.1l-0.3-1.5l2.1-1.1h1.5v8.8h-1.8V18.3z"/>
	<path class="st3" d="M58,25.2v-2.1h-3.5v-1.3l3-5.3h2.2v5.1h0.9v1.5h-0.9v2.1H58z M58,21.6v-1.9c0-0.5,0-1.1,0.1-1.6l0,0
		c-0.3,0.6-0.5,1.1-0.7,1.6l-1,1.9l0,0H58z"/>
	<path class="st3" d="M67.2,20.8c0,2.7-1,4.6-3,4.6s-2.9-2-2.9-4.5s1-4.6,3-4.6C66.4,16.3,67.2,18.4,67.2,20.8z M63.2,20.8
		c0,2,0.4,3,1.1,3c0.7,0,1.1-1,1.1-3c0-1.9-0.4-3-1.1-3C63.6,17.8,63.2,18.8,63.2,20.8z"/>
	<path class="st3" d="M73.9,20.8c0,2.7-1,4.6-3,4.6s-2.9-2-2.9-4.5s1-4.6,3-4.6C73.1,16.3,73.9,18.4,73.9,20.8z M69.8,20.8
		c0,2,0.4,3,1.1,3s1.1-1,1.1-3c0-1.9-0.4-3-1.1-3C70.3,17.8,69.8,18.8,69.8,20.8z"/>
	<path class="st3" d="M80.6,20.8c0,2.7-1,4.6-3,4.6s-2.9-2-2.9-4.5s1-4.6,3-4.6S80.6,18.4,80.6,20.8z M76.5,20.8c0,2,0.4,3,1.1,3
		s1.1-1,1.1-3c0-1.9-0.4-3-1.1-3C77,17.8,76.5,18.8,76.5,20.8z"/>
</g>
<g>
	<path d="M51.1,21.7c-0.3,0-0.6-0.1-0.9-0.2s-0.5-0.3-0.8-0.5c-0.2-0.2-0.4-0.5-0.5-0.8c-0.1-0.3-0.2-0.7-0.2-1.1
		c0-0.4,0.1-0.8,0.2-1.1c0.1-0.3,0.3-0.6,0.6-0.9c0.3-0.3,0.6-0.5,0.9-0.6s0.8-0.2,1.2-0.2c0.4,0,0.8,0.1,1.2,0.2
		c0.4,0.1,0.7,0.3,0.9,0.6s0.4,0.6,0.6,0.9s0.2,0.7,0.2,1.2c0,0.3,0,0.5-0.1,0.8c0,0.2-0.1,0.5-0.2,0.7c-0.1,0.2-0.2,0.4-0.3,0.6
		s-0.3,0.4-0.4,0.6l-2,2.8c-0.1,0.1-0.2,0.2-0.3,0.2c-0.1,0.1-0.3,0.1-0.5,0.1h-1.4l2.7-3.4c0.1-0.1,0.1-0.2,0.2-0.2
		c0.1-0.1,0.1-0.2,0.2-0.2c-0.2,0.1-0.4,0.2-0.7,0.3C51.6,21.6,51.4,21.7,51.1,21.7z M53.1,19.1c0-0.2,0-0.4-0.1-0.6
		c-0.1-0.2-0.2-0.3-0.3-0.5s-0.3-0.2-0.5-0.3c-0.2-0.1-0.4-0.1-0.6-0.1c-0.2,0-0.4,0-0.6,0.1c-0.2,0.1-0.3,0.2-0.5,0.3
		c-0.1,0.1-0.2,0.3-0.3,0.5c-0.1,0.2-0.1,0.4-0.1,0.6c0,0.5,0.1,0.9,0.4,1.1s0.6,0.4,1.1,0.4c0.2,0,0.5,0,0.6-0.1
		c0.2-0.1,0.3-0.2,0.5-0.3c0.1-0.1,0.2-0.3,0.3-0.5C53.1,19.5,53.1,19.3,53.1,19.1z"/>
	<path d="M61.5,20.8c0,0.8-0.1,1.4-0.2,2s-0.4,1-0.7,1.4s-0.6,0.6-1,0.8c-0.4,0.2-0.8,0.3-1.3,0.3s-0.9-0.1-1.3-0.3
		c-0.4-0.2-0.7-0.4-1-0.8s-0.5-0.8-0.7-1.4s-0.2-1.2-0.2-2c0-0.8,0.1-1.4,0.2-2s0.4-1,0.7-1.4c0.3-0.4,0.6-0.6,1-0.8
		c0.4-0.2,0.8-0.3,1.3-0.3s0.9,0.1,1.3,0.3c0.4,0.2,0.7,0.4,1,0.8c0.3,0.4,0.5,0.8,0.7,1.4S61.5,20,61.5,20.8z M60,20.8
		c0-0.6,0-1.1-0.1-1.6s-0.2-0.7-0.4-1c-0.2-0.2-0.3-0.4-0.5-0.5s-0.4-0.1-0.6-0.1c-0.2,0-0.4,0-0.6,0.1c-0.2,0.1-0.4,0.3-0.5,0.5
		c-0.2,0.2-0.3,0.6-0.4,1s-0.1,0.9-0.1,1.6s0,1.1,0.1,1.6c0.1,0.4,0.2,0.7,0.4,1c0.2,0.2,0.3,0.4,0.5,0.5c0.2,0.1,0.4,0.1,0.6,0.1
		c0.2,0,0.4,0,0.6-0.1s0.4-0.3,0.5-0.5s0.3-0.6,0.4-1C60,21.9,60,21.4,60,20.8z"/>
	<path d="M68.5,20.8c0,0.8-0.1,1.4-0.2,2s-0.4,1-0.7,1.4s-0.6,0.6-1,0.8c-0.4,0.2-0.8,0.3-1.3,0.3s-0.9-0.1-1.3-0.3
		c-0.4-0.2-0.7-0.4-1-0.8s-0.5-0.8-0.7-1.4s-0.2-1.2-0.2-2c0-0.8,0.1-1.4,0.2-2s0.4-1,0.7-1.4c0.3-0.4,0.6-0.6,1-0.8
		c0.4-0.2,0.8-0.3,1.3-0.3s0.9,0.1,1.3,0.3c0.4,0.2,0.7,0.4,1,0.8c0.3,0.4,0.5,0.8,0.7,1.4S68.5,20,68.5,20.8z M67,20.8
		c0-0.6,0-1.1-0.1-1.6s-0.2-0.7-0.4-1c-0.2-0.2-0.3-0.4-0.5-0.5s-0.4-0.1-0.6-0.1c-0.2,0-0.4,0-0.6,0.1c-0.2,0.1-0.4,0.3-0.5,0.5
		c-0.2,0.2-0.3,0.6-0.4,1s-0.1,0.9-0.1,1.6s0,1.1,0.1,1.6c0.1,0.4,0.2,0.7,0.4,1c0.2,0.2,0.3,0.4,0.5,0.5c0.2,0.1,0.4,0.1,0.6,0.1
		c0.2,0,0.4,0,0.6-0.1s0.4-0.3,0.5-0.5s0.3-0.6,0.4-1C66.9,21.9,67,21.4,67,20.8z"/>
	<path d="M75.5,20.8c0,0.8-0.1,1.4-0.2,2s-0.4,1-0.7,1.4s-0.6,0.6-1,0.8c-0.4,0.2-0.8,0.3-1.3,0.3s-0.9-0.1-1.3-0.3
		c-0.4-0.2-0.7-0.4-1-0.8s-0.5-0.8-0.7-1.4s-0.2-1.2-0.2-2c0-0.8,0.1-1.4,0.2-2s0.4-1,0.7-1.4c0.3-0.4,0.6-0.6,1-0.8
		c0.4-0.2,0.8-0.3,1.3-0.3s0.9,0.1,1.3,0.3c0.4,0.2,0.7,0.4,1,0.8c0.3,0.4,0.5,0.8,0.7,1.4S75.5,20,75.5,20.8z M73.9,20.8
		c0-0.6,0-1.1-0.1-1.6s-0.2-0.7-0.4-1c-0.2-0.2-0.3-0.4-0.5-0.5s-0.4-0.1-0.6-0.1c-0.2,0-0.4,0-0.6,0.1c-0.2,0.1-0.4,0.3-0.5,0.5
		c-0.2,0.2-0.3,0.6-0.4,1s-0.1,0.9-0.1,1.6s0,1.1,0.1,1.6c0.1,0.4,0.2,0.7,0.4,1c0.2,0.2,0.3,0.4,0.5,0.5c0.2,0.1,0.4,0.1,0.6,0.1
		c0.2,0,0.4,0,0.6-0.1s0.4-0.3,0.5-0.5s0.3-0.6,0.4-1C73.9,21.9,73.9,21.4,73.9,20.8z"/>
</g>
</svg>
