<?xml version="1.0" encoding="utf-8"?>
<!-- Generator: Adobe Illustrator 23.0.3, SVG Export Plug-In . SVG Version: 6.00 Build 0)  -->
<svg version="1.1" id="Layer_1" xmlns="http://www.w3.org/2000/svg" xmlns:xlink="http://www.w3.org/1999/xlink" x="0px" y="0px"
	 viewBox="0 0 1920 1081.7" style="enable-background:new 0 0 1920 1081.7;" xml:space="preserve">
<style type="text/css">
	.st0{fill:url(#Shape-2_1_);}
	.st1{fill:#F3E500;}
	.st2{fill:url(#Shape-4_1_);}
	.st3{fill:url(#Shape-5_1_);}
	.st4{fill:#E6E6E6;}
	.st5{fill:#FFFFFF;}
</style>
<linearGradient id="Shape-2_1_" gradientUnits="userSpaceOnUse" x1="743.4432" y1="540.177" x2="-106.4256" y2="540.177" gradientTransform="matrix(1 0 0 -1 0 1081.356)">
	<stop  offset="0" style="stop-color:#49BC5D"/>
	<stop  offset="1" style="stop-color:#B2D442"/>
</linearGradient>
<path id="Shape-2" class="st0" d="M637.5,0.7H-0.4v1081h180.3L637.5,0.7z"/>
<path id="Shape-3" class="st1" d="M1052-259.3l-675,1600H70l677-1600H1052z"/>
<linearGradient id="Shape-4_1_" gradientUnits="userSpaceOnUse" x1="2016.0383" y1="540.177" x2="1241.9711" y2="540.177" gradientTransform="matrix(1 0 0 -1 0 1081.356)">
	<stop  offset="0" style="stop-color:#00ABBC"/>
	<stop  offset="1" style="stop-color:#00B5C7"/>
</linearGradient>
<path id="Shape-4" class="st2" d="M1338.7,0.7l452.1,1081h128.6V0.9L1338.7,0.7z"/>
<linearGradient id="Shape-5_1_" gradientUnits="userSpaceOnUse" x1="2008.6464" y1="540.177" x2="270.3361" y2="540.177" gradientTransform="matrix(1 0 0 -1 0 1081.356)">
	<stop  offset="0" style="stop-color:#16BECF"/>
	<stop  offset="1" style="stop-color:#00ABBC"/>
</linearGradient>
<path id="Shape-5" class="st3" d="M486.2,1081.7h1306.4L1340.5,0.7H942L486.2,1081.7z"/>
<path id="Shape-1" d="M242.6,168.5H453l206.7,494.4L870,168.5h210.4L766.7,910.1H554.5L242.6,168.5z"/>
<path id="VLERICK" class="st4" d="M949.4,330.5l-36.6,7.2l5.3,11.5l19.8,8.4l-9,21.2l-76.7-32.6l9-21.2l31.1,13.2l-19.9-39.6
	l10.7-25.2l20.7,43.1l56.4-11.5L949.4,330.5z M868.1,383.2c-3.9,1.1-7.2,2.7-9.9,4.7c-2.7,2-4.7,4.8-6.2,8.3
	c-2.3,5.3-2.2,10.5,0.3,15.6c2.5,5.1,6.5,8.9,12.2,11.3l0.2,0.1c5.8,2.5,11.4,2.8,16.8,1c5.4-1.8,9.2-5.3,11.5-10.6
	c1.6-3.7,2.2-7.3,1.7-10.5c-0.4-3.3-1.7-6.9-3.7-10.7l18.2-11.2c2.5,4.1,4.3,8.1,5.5,12.1c1.2,3.9,1.6,8.4,1.3,13.5
	c-0.3,5.1-1.6,10.3-3.9,15.7c-3.1,7.2-7.6,13.1-13.6,17.7c-6,4.6-12.7,7.3-20.3,8.3c-7.6,1-15.1-0.2-22.6-3.3l-0.2-0.1
	c-5.5-2.3-10.3-5.6-14.3-9.7c-4-4.1-7.1-8.7-9.1-13.8c-2-5.1-3-10.5-3-16.4c0.1-5.9,1.3-11.7,3.7-17.4c5.9-14,15.9-22.6,29.8-25.7
	L868.1,383.2z M879.9,494.1l-76.7-32.6l9.1-21.4l76.7,32.6L879.9,494.1z M824.7,483.8l0.2,0.1c5.7,2.4,9.9,5.8,12.7,10.3
	c2.8,4.5,4.2,9.6,4.2,15.5l34.5-6.9l-10.4,24.6l-29.8,5.6l-0.1,0.2l-3.9,9.1l23.2,9.9l-9,21.2l-76.7-32.6l15.4-36.3
	c4.8-11.2,11.1-18.3,18.9-21.4C810.3,480.3,817.2,480.6,824.7,483.8z M797,527.3l18.5,7.8l5.9-14c1.5-3.6,1.9-6.7,1.1-9.4
	c-0.8-2.7-2.6-4.7-5.4-5.8l-0.3-0.1c-3-1.3-5.6-1.2-8,0.1c-2.4,1.4-4.4,3.9-5.9,7.5L797,527.3z M765.6,600.4l11.6,4.9l15.6-36.8
	l16.8,7.1L794,612.5l12.1,5.2l17.5-41.2l18.1,7.7l-26.4,62.2l-76.7-32.6l26.2-61.7l18.1,7.7L765.6,600.4z M792.9,647.5l18.6,7.9
	l-24.8,58.4L710,681.2l9-21.2l58.1,24.7L792.9,647.5z M762.5,772.2l-90.4-1.7l10.1-23.8l55.9,3.2L696.9,712l9.9-23.3l64,63.9
	L762.5,772.2z"/>
<path id="FAST" d="M1365.5,450.9v62h-22.7v-62h-24.6V431h71.9v19.9H1365.5z M1276.4,514.3c-7.4,0-14.4-1.2-21-3.5
	c-6.6-2.3-12.4-5.7-17.4-10.1l12.7-15.1c8.2,6.6,17,9.8,26.6,9.8c3,0,5.3-0.5,6.9-1.5c1.6-1,2.4-2.4,2.4-4.1v-0.3
	c0-1.8-0.9-3.2-2.8-4.3c-1.9-1.1-5.5-2.3-10.9-3.5c-2.8-0.6-5.2-1.2-7.3-1.8s-4.2-1.2-6.5-2.1c-2.3-0.8-4.2-1.7-5.8-2.6
	c-1.6-0.9-3.2-2-4.7-3.3c-1.5-1.3-2.7-2.7-3.7-4.2c-0.9-1.5-1.7-3.2-2.2-5.2c-0.6-2-0.8-4.2-0.8-6.5v-0.2c0-7.7,2.9-14,8.6-18.9
	c5.7-4.9,13.4-7.3,23.1-7.3c13.4,0,24.7,3.6,33.7,10.9l-11.4,16.1c-7.7-5.4-15.3-8.1-22.9-8.1c-2.6,0-4.7,0.5-6.1,1.5
	c-1.4,1-2.1,2.2-2.1,3.8v0.2c0,1.9,0.9,3.4,2.8,4.4c1.9,1,5.7,2.2,11.3,3.5c5,1.1,9.3,2.3,12.8,3.6c3.5,1.3,6.7,3,9.5,4.9
	c2.8,2,4.9,4.4,6.2,7.2c1.4,2.8,2.1,6.1,2.1,9.8v0.2c0,8.3-3,14.8-9,19.5C1294.5,512,1286.4,514.3,1276.4,514.3z M1202.4,498.3
	h-31.6l-5.8,14.6h-23.9l34.9-82.5h21.9l34.8,82.5h-24.3L1202.4,498.3z M1186.7,457.3l-9.3,23.3h18.4L1186.7,457.3z M1099.2,464.8
	h38.7v18.9h-38.7v29.3h-22.7V431h65.5v19.9h-42.8V464.8z"/>
<path id="SIMULATION" d="M1846.9,612.9l-35-44.9v44.9h-22.5V531h21.2l33.6,43.3V531h22.5v81.9H1846.9z M1760.4,602.1
	c-3.9,3.8-8.6,6.8-14.1,9.1c-5.5,2.2-11.3,3.4-17.5,3.4s-12-1.1-17.5-3.3c-5.5-2.2-10.1-5.2-14-9c-3.9-3.8-6.9-8.3-9.1-13.5
	c-2.2-5.2-3.3-10.7-3.3-16.5V572c0-5.8,1.1-11.3,3.4-16.5c2.3-5.2,5.3-9.8,9.2-13.6c3.9-3.8,8.6-6.8,14.1-9.1
	c5.5-2.2,11.3-3.4,17.5-3.4c6.2,0,12,1.1,17.5,3.3c5.5,2.2,10.1,5.2,14,9c3.9,3.8,6.9,8.3,9.1,13.5c2.2,5.2,3.3,10.7,3.3,16.5v0.2
	c0,5.8-1.1,11.3-3.4,16.6C1767.3,593.8,1764.3,598.3,1760.4,602.1z M1749.9,572c0-6.1-2-11.3-5.9-15.6c-4-4.3-9-6.5-15.1-6.5
	c-6.1,0-11,2.1-14.9,6.4c-3.9,4.3-5.8,9.4-5.8,15.5v0.2c0,6.1,2,11.3,5.9,15.6c4,4.3,9,6.5,15,6.5c6.1,0,11.1-2.1,15-6.4
	c3.9-4.3,5.8-9.4,5.8-15.5V572z M1645.1,531h22.9v81.9h-22.9V531z M1605.5,612.9h-22.7v-62h-24.6V531h71.9v19.9h-24.6V612.9z
	 M1536.4,612.9l-6-14.6h-31.6l-5.8,14.6h-23.9l34.9-82.5h21.9l34.8,82.5H1536.4z M1514.7,557.3l-9.3,23.3h18.4L1514.7,557.3z
	 M1398.9,531h22.7v62h39.7v19.9h-62.4V531z M1370.4,605.4c-3.4,3-7.4,5.3-12.1,6.8c-4.7,1.5-10,2.3-15.9,2.3
	c-12,0-21.3-3.1-27.9-9.3c-6.6-6.2-9.9-15.6-9.9-28.1v-46h23v45.5c0,5.8,1.3,10.1,4,13c2.7,2.9,6.4,4.4,11.1,4.4
	c4.7,0,8.4-1.4,11.1-4.2c2.7-2.8,4-7,4-12.6V531h23.1v45.4c0,6.5-0.9,12.2-2.7,17.1C1376.4,598.4,1373.8,602.3,1370.4,605.4z
	 M1263.8,565.9l-20.9,32.1h-0.5l-20.9-31.8v46.8h-22.2V531h24l19.5,31.7l19.5-31.7h24v81.9h-22.6V565.9z M1157,531h22.9v81.9H1157
	V531z M1107.7,614.3c-7.4,0-14.4-1.2-21-3.5s-12.4-5.7-17.4-10.1l12.7-15.1c8.2,6.6,17,9.8,26.6,9.8c3,0,5.3-0.5,6.9-1.5
	c1.6-1,2.4-2.4,2.4-4.1v-0.3c0-1.8-0.9-3.2-2.8-4.3c-1.9-1.1-5.5-2.3-10.9-3.5c-2.8-0.6-5.2-1.2-7.3-1.8c-2.1-0.6-4.2-1.2-6.5-2.1
	c-2.3-0.8-4.2-1.7-5.8-2.6c-1.6-0.9-3.2-2-4.7-3.3c-1.5-1.3-2.7-2.7-3.7-4.2c-0.9-1.5-1.7-3.2-2.2-5.2c-0.6-2-0.8-4.2-0.8-6.5v-0.2
	c0-7.7,2.9-14,8.6-18.9c5.7-4.9,13.4-7.3,23.1-7.3c13.4,0,24.7,3.6,33.7,10.9l-11.4,16.1c-7.7-5.4-15.3-8.1-22.9-8.1
	c-2.6,0-4.7,0.5-6.1,1.5c-1.4,1-2.1,2.2-2.1,3.8v0.2c0,1.9,0.9,3.4,2.8,4.4c1.9,1,5.7,2.2,11.3,3.5c5,1.1,9.3,2.3,12.8,3.6
	c3.5,1.3,6.7,3,9.5,4.9c2.8,2,4.9,4.4,6.2,7.2c1.4,2.8,2.1,6.1,2.1,9.8v0.2c0,8.3-3,14.8-9,19.5
	C1125.8,612,1117.8,614.3,1107.7,614.3z"/>
<path id="Loading..." class="st5" d="M1354.7,699.9v-10.7h10.9v10.7H1354.7z M1336.9,689.2h10.9v10.7h-10.9V689.2z M1319.1,689.2
	h10.9v10.7h-10.9V689.2z M1294.8,708.8c-5.5,0-10.5-1.1-14.9-3.4l3.4-6.9c3.4,1.9,6.8,2.8,10.4,2.8c2.6,0,4.5-0.6,5.9-1.9
	c1.3-1.2,2-3.1,2-5.4v-1.2c-1.2,1.4-2.5,2.5-4,3.3c-1.5,0.8-3.2,1.2-5.2,1.2c-1.8,0-3.5-0.3-5.1-1c-1.6-0.6-3-1.6-4.2-2.7
	c-1.2-1.2-2.1-2.6-2.8-4.4c-0.7-1.7-1-3.7-1-5.7v-0.1c0-2.1,0.3-4,1-5.8c0.7-1.8,1.6-3.2,2.8-4.4c1.2-1.2,2.6-2.1,4.1-2.7
	c1.6-0.7,3.2-1,4.9-1c2.1,0,3.8,0.4,5.3,1.1c1.4,0.7,2.8,1.8,4.1,3.1v-3.5h10.4v22.6c0,5.4-1.3,9.3-3.8,11.9
	C1305.1,707.4,1300.7,708.8,1294.8,708.8z M1301.4,683.4c0-1.6-0.6-3-1.7-4.1c-1.1-1.1-2.6-1.6-4.3-1.6c-1.8,0-3.2,0.5-4.4,1.6
	c-1.2,1.1-1.7,2.5-1.7,4.1v0.1c0,1.6,0.6,3,1.7,4.1c1.1,1.1,2.6,1.6,4.4,1.6c1.8,0,3.2-0.5,4.3-1.6c1.1-1.1,1.7-2.5,1.7-4.1V683.4z
	 M1262.1,683.8c0-1.6-0.4-2.8-1.1-3.7c-0.8-0.9-1.8-1.3-3-1.3c-1.3,0-2.4,0.4-3.2,1.3s-1.2,2.1-1.2,3.7v16.1h-10.5v-29.8h10.5v4.2
	c2.5-3.2,5.5-4.9,8.9-4.9c3.2,0,5.6,1,7.4,2.9c1.8,2,2.7,4.6,2.7,8v19.5h-10.4V683.8z M1224.4,659.8h10.9v7.7h-10.9V659.8z
	 M1206.1,696c-1.2,1.5-2.5,2.6-3.9,3.4c-1.4,0.8-3.1,1.2-5.2,1.2c-1.8,0-3.4-0.4-5-1.1c-1.6-0.7-3-1.7-4.2-3
	c-1.2-1.3-2.2-2.9-2.9-4.9c-0.7-2-1.1-4.1-1.1-6.4v-0.1c0-2.3,0.4-4.5,1.1-6.5c0.7-2,1.7-3.6,2.9-4.9c1.2-1.3,2.6-2.3,4.2-3.1
	c1.6-0.7,3.3-1.1,5-1.1c2.1,0,3.8,0.4,5.2,1.2c1.4,0.8,2.7,1.8,3.9,3.1v-14h10.4v40.1h-10.4V696z M1206.3,685c0-1.9-0.6-3.5-1.7-4.8
	c-1.2-1.3-2.6-1.9-4.3-1.9c-1.7,0-3.1,0.6-4.3,1.9c-1.2,1.3-1.8,2.9-1.8,4.8v0.1c0,2,0.6,3.6,1.8,4.8c1.2,1.3,2.6,1.9,4.3,1.9
	c1.7,0,3.1-0.6,4.3-1.9c1.2-1.3,1.7-2.9,1.7-4.8V685z M1167.2,696.8c-2.3,2.5-5.2,3.8-8.8,3.8c-2.9,0-5.3-0.8-7.2-2.4
	c-1.9-1.6-2.8-3.9-2.8-6.8v-0.1c0-3,1-5.3,3.1-6.9c2.1-1.6,4.9-2.4,8.5-2.4c2.7,0,5.1,0.4,7.2,1.2v-0.5c0-3.2-2-4.8-6-4.8
	c-2.7,0-5.5,0.5-8.2,1.6l-2.1-7.4c3.8-1.5,7.8-2.3,12.1-2.3c5.1,0,8.9,1.2,11.3,3.6c2.1,2.1,3.2,5.2,3.2,9.5v17.1h-10.3V696.8z
	 M1167.3,687.8c-1.2-0.5-2.6-0.8-4.1-0.8s-2.7,0.3-3.5,1c-0.8,0.7-1.3,1.6-1.3,2.7v0.1c0,1,0.3,1.8,1,2.4c0.7,0.6,1.6,0.9,2.7,0.9
	c1.5,0,2.8-0.4,3.7-1.3c1-0.9,1.4-2.1,1.4-3.5V687.8z M1138.7,696c-1.4,1.4-3.2,2.5-5.2,3.4c-2.1,0.8-4.3,1.2-6.6,1.2
	c-2.3,0-4.5-0.4-6.6-1.2c-2-0.8-3.8-1.9-5.2-3.3c-1.4-1.4-2.6-3-3.4-4.9c-0.8-1.9-1.2-3.9-1.2-6v-0.1c0-2.1,0.4-4.1,1.2-6
	c0.8-1.9,2-3.6,3.4-5c1.4-1.4,3.2-2.5,5.3-3.4c2.1-0.8,4.3-1.2,6.6-1.2c3.1,0,5.9,0.7,8.4,2.1c2.5,1.4,4.5,3.3,5.9,5.6
	c1.4,2.4,2.1,4.9,2.1,7.7v0.1c0,2.1-0.4,4.1-1.2,6C1141.2,693,1140.1,694.6,1138.7,696z M1133.1,685.1c0-1.8-0.6-3.4-1.8-4.7
	c-1.2-1.3-2.7-2-4.5-2c-1.8,0-3.3,0.6-4.5,1.9c-1.2,1.3-1.7,2.8-1.7,4.7v0.1c0,1.8,0.6,3.4,1.8,4.7c1.2,1.3,2.7,2,4.5,2
	c1.8,0,3.3-0.6,4.5-1.9c1.1-1.3,1.7-2.8,1.7-4.7V685.1z M1076.7,661.4h10.7v29.2h18.7v9.3h-29.3V661.4z M1235.1,699.9h-10.4v-29.8
	h10.4V699.9z"/>
</svg>
