<svg id="Layer_1" xmlns="http://www.w3.org/2000/svg" viewBox="0 0 31 40.6"><style>.st0{fill:#fff}</style><path id="XMLID_44_" class="st0" d="M2.3 9.8c0-.1 0-.1 0 0 0-.1 0-.1 0 0v-.1l7-7h18.1V0H0v37.4h2.3V9.8z"/><path class="st0" d="M10.2 3.2v6.6c0 .2-.2.5-.5.5H3.2v30.4H31V3.2H10.2zm11.3 4.1c0-.1.1-.2.1-.3.1-.1.2-.1.3-.1H27.3l.1.1v.4s0 .1-.1.1c0 0-.1 0-.1.1h-.1-.1-5c-.1 0-.2-.1-.3-.1-.1-.1-.1-.1-.1-.2-.1.1-.1.1-.1 0 0 .1 0 .1 0 0 0 .1 0 .1 0 0zm-1.3 2c.1 0 .1 0 0 0H27.1l.1.1v.6s0 .1-.1.1H27h-.1-.1H20.1c-.2 0-.5-.2-.5-.4.1-.1.3-.4.6-.4zM7.5 15.2s.1 0 0 0c.1 0 .1 0 0 0h19.3c.2 0 .5.2.5.4s-.2.5-.4.5H7.6c-.2 0-.5-.2-.5-.4 0-.3.2-.5.4-.5zm6.2 2.8c0 .1-.1.2-.1.3-.1.1-.1.1-.2.1H7.6c-.2 0-.4-.2-.5-.4 0-.2.2-.4.4-.4h5.7c.1 0 .2.1.2.1.1.1.1.1.1.2.2 0 .2 0 .2.1 0-.1 0 0 0 0zM6.8 32.7V21.2c0-.2.2-.5.5-.5h19.6c.2 0 .5.2.5.4v11.5c0 .2-.2.5-.5.5H7.2c-.2-.1-.4-.2-.4-.4zm20.1 5.6H24c-.1 0-.2-.1-.3-.1-.1-.1-.1-.1-.1-.2v-.1c0-.1.1-.2.1-.3.1-.1.2-.1.3-.1h2.8c.2 0 .5.2.5.4s-.1.4-.4.4zm0-2.3h-7.5-.1-.1-.1s-.1 0-.1-.1v-.1-.1-.1-.1-.1s0-.1.1-.1l.1-.1H26.8c.2 0 .5.2.5.4 0 .1-.1.4-.4.4zm.4-18V18.3s0 .1-.1.1c0 0-.1 0-.1.1H27h-.1H16h-.1-.1-.1s-.1 0-.1-.1v-.1-.1-.1-.1-.1s0-.1.1-.1l.1-.1H27.1s.1 0 .1.1h.1l.1.1v.1c-.1-.2-.1-.2-.1 0 0-.1 0-.1 0 0 0-.1 0 0 0 0z"/><path class="st0" d="M9.3 3.8L3.8 9.3h5.5zM10.4 26.5v-2.1H7.6v2.1zM10.4 23.5V21.6H7.6v1.9zM7.6 32.1h2.8v-1.8H7.6zM10.4 29.4v-2H7.6v2zM11.3 21.6h15.1v1.9H11.3zM11.3 24.4h15.1v1.9H11.3zM11.3 27.3h15.1v1.9H11.3zM11.3 30.1h15.1V32H11.3z"/></svg>