<svg id="Layer_1" xmlns="http://www.w3.org/2000/svg" viewBox="0 0 38.3 29.4"><style>.st0{fill:#fff}</style><g id="Group_278" transform="translate(0 .047)"><path id="Path_205" class="st0" d="M7.2 21.1c3.4 0 6.2-1 6.2-2.2s-2.8-2.2-6.2-2.2S1 17.8 1 19s2.8 2.1 6.2 2.1z"/><path id="Path_206" class="st0" d="M10.9 23.9c-1.2.3-2.5.4-3.7.4-4 0-7.2-1.4-7.2-3.1v-2c.5.5 1.2 1 1.9 1.3 2.9 1.1 6 1.3 9 .6v1.6c0 .2 0 .5.1.7 0 .2 0 .4-.1.5z"/><path id="Path_207" class="st0" d="M38.3 17.8v-.3c-.1.2-.2.3-.3.4l-9.2 5.3c-.2.1-.4.2-.7.1l-1.4-.6v.1c0 .2 0 .5-.1.7.1.2.1.4.1.6l1.4.6c.2.1.5.1.7-.1l9.2-5.3c.3-.2.4-.4.4-.7l-.1-.8zm-18.6-7.7l9.6-5.7L25.7 3 15.5 9.1v1.3c1.4-.3 2.8-.4 4.2-.3zm18.6 5v.7c.1.3-.1.6-.4.7l-9.2 5.3c-.2.1-.4.2-.7.1l-1.4-.6v-.7c0-.2 0-.5-.1-.7l1.6.6c.2.1.5.1.7-.1l9.2-5.3c.2-.1.3-.2.3-.4v.4zm0-2.6v.7c.1.3-.1.6-.4.7l-9.2 5.3c-.2.1-.4.2-.7.1l-1.4-.6v-1.4l1.4.6c.2.1.5.1.7-.1l9.2-5.3c.2-.1.3-.2.3-.4.1.2.1.3.1.4zm-26-.9L8.2 10c-.2-.1-.3-.2-.4-.4v-.1 1.2c0 .1 0 .3.1.4.1.1.2.2.4.3l2.8 1.1c.1 0 .2.1.4.1.1-.4.4-.7.8-1zm26-1.7v.7c.1.3-.1.6-.4.7l-9.2 5.3c-.2.1-.4.2-.7.1l-1.5-.6v-1.5l1.4.6c.2.1.5.1.7-.1l9.2-5.3c.2-.1.3-.2.3-.4.2.3.2.4.2.5zm-24.2-.2v1.1c-.1 0-.3.1-.4.1L8.2 8.7c-.2-.1-.3-.2-.4-.3 0-.1-.1-.3 0-.4v-.9-.3.1c.1.2.2.3.4.4l5.9 2.4zm14.6 4.4c-.2.1-.4.2-.7.1l-1.4-.6c-.1-1.1-1-2-2.5-2.6-.7-.3-1.4-.5-2.1-.6l6.9-4.1 1.1-.7 1-.6 6.8 2.5c.2.1.3.2.4.3.2.3.1.8-.3 1l-9.2 5.3zM24 2.4l-9.2 5.5c-.3.2-.5.4-.6.7l-6-2.4c-.2-.1-.3-.2-.4-.4-.2-.3 0-.7.3-.9L17 0c.2-.1.4-.1.6 0L24 2.4z"/><path id="Path_208" class="st0" d="M10.9 20.5c-1.2.3-2.5.4-3.7.4-4 0-7.2-1.4-7.2-3.1v-2c0-1.7 3.2-3.1 7.2-3.1 1.3 0 2.6.1 3.8.5-.1.2-.1.4-.1.6-1.2-.3-2.4-.4-3.7-.4-3.4 0-6.2 1-6.2 2.2 0 1.2 2.8 2.2 6.2 2.2 1.2 0 2.5-.1 3.7-.4v2c0 .2 0 .5.1.7 0 .1 0 .2-.1.4z"/><path id="Path_209" class="st0" d="M26 24.3v2c0 1.7-3.2 3.1-7.2 3.1s-7.2-1.4-7.2-3.1v-2c.5.5 1.2 1 1.9 1.3 3.5 1.3 7.3 1.3 10.7 0 .6-.3 1.3-.8 1.8-1.3z"/><path id="Path_210" class="st0" d="M26 20.8v2c0 1.7-3.2 3.1-7.2 3.1s-7.2-1.4-7.2-3.1v-2c.5.5 1.2 1 1.9 1.3 3.5 1.3 7.3 1.3 10.7 0 .6-.3 1.3-.8 1.8-1.3z"/><path id="Path_211" class="st0" d="M26 17.3v2c0 1.7-3.2 3.1-7.2 3.1s-7.2-1.4-7.2-3.1v-2c.5.5 1.2 1 1.9 1.3 3.5 1.3 7.3 1.3 10.7 0 .6-.3 1.3-.7 1.8-1.3z"/><path id="Path_212" class="st0" d="M26 13.8v2c0 1.7-3.2 3.1-7.2 3.1s-7.2-1.4-7.2-3.1v-2c0-1.7 3.2-3.1 7.2-3.1s7.2 1.4 7.2 3.1zm-7.2-2.5c-3.4 0-6.2 1-6.2 2.2s2.8 2.2 6.2 2.2c3.4 0 6.2-1 6.2-2.2 0-1.2-2.8-2.2-6.2-2.2z"/></g></svg>