<svg id="Layer_1" xmlns="http://www.w3.org/2000/svg" viewBox="0 0 37.1 36.7"><style>.st0{fill:#fff}</style><path class="st0" d="M32.3 23.3l-8.6-6.4c-.1-.1-.3-.1-.5 0l-8.7 6.5c-.1.1-.2.3-.1.4.1.2.2.3.4.3h17.3c.1 0 .2-.1.3-.2.1-.3.1-.5-.1-.6z"/><path class="st0" d="M23.1 14.4l-12.1 9c-.3.2-.3.6-.1.9.1.2.3.2.5.2.1 0 .3 0 .4-.1l11.7-8.8 11.7 8.7c.3.2.7.1.9-.2.2-.3.1-.7-.2-.9l-12.1-9c-.2 0-.5 0-.7.2zM14.7 32.5c0 .2.1.3.3.3h3.4c.2 0 .3-.1.3-.3 0-.2-.1-.3-.3-.3h-.2v-.1c0-.2-.1-.3-.3-.3h-.2v-6.2h.3c.2 0 .3-.1.3-.3v-.1h.2c.2 0 .3-.1.3-.3 0-.2-.1-.3-.3-.3H15c-.2 0-.3.1-.3.3s.1.3.3.3h.2v.1c0 .2.1.3.3.3h.2v6.2h-.2c-.2 0-.3.1-.3.3v.1H15c-.1 0-.2.1-.3.3zM21.4 32.5c0 .2.1.3.3.3h3.4c.2 0 .3-.1.3-.3 0-.2-.1-.3-.3-.3H25v-.1c0-.2-.1-.3-.3-.3h-.2v-6.2h.2c.2 0 .3-.1.3-.3v-.1h.2c.2 0 .3-.1.3-.3 0-.2-.1-.3-.3-.3h-3.4c-.2 0-.3.1-.3.3 0 .2.1.3.3.3h.2v.1c0 .2.1.3.3.3h.2v6.2h-.2c-.2 0-.3.1-.3.3v.1h-.2c-.2 0-.3.1-.4.3zM28.1 32.5c0 .2.1.3.3.3h3.4c.2 0 .3-.1.3-.3 0-.2-.1-.3-.3-.3h-.2v-.1c0-.2-.1-.3-.3-.3h-.2v-6.2h.2c.2 0 .3-.1.3-.3v-.1h.2c.2 0 .3-.1.3-.3 0-.2-.1-.3-.3-.3h-3.4c-.2 0-.3.1-.3.3s.1.3.3.3h.2v.1c0 .2.1.3.3.3h.1v6.2h-.2c-.2 0-.3.1-.3.3v.1h-.2s-.1.1-.2.3zM12.3 33.9c0 .4.3.7.6.7h21.2c.4 0 .6-.3.6-.7 0-.4-.3-.6-.7-.7H13c-.4.1-.6.3-.7.7zM36.5 35.3H10.7h-.1c-.4 0-.6.3-.6.7 0 .4.3.6.7.6h25.7c.4 0 .7-.3.7-.7 0-.3-.3-.5-.6-.6zM10.5 21.9c.3 0 .4-.2.4-.4s-.1-.4-.4-.5c-4.3-.5-7.6-4-8-8.2l1.8 1.3c.2.1.4.1.5-.1.4 0 .3-.3.2-.4l-2.4-1.8c-.1-.1-.2-.2-.3-.2-.2 0-.3.1-.4.3L.2 14.3c-.1.2-.1.4.1.6-.1.1 0 .1.1.1s.3-.1.3-.2l1.1-1.6c.6 4.6 4.1 8.2 8.7 8.7zM13.1 2.7c4.3.5 7.6 4 8 8.2l-1.8-1.3c-.2-.1-.4-.1-.6.1s-.1.4.1.6l2.5 1.8c.1 0 .1.1.2.1H21.8l1.8-2.5c.1-.2.1-.4-.1-.6-.1-.3-.3-.2-.5-.1l-1.2 1.6c-.5-4.5-4.1-8.1-8.6-8.7-.2 0-.4.1-.4.3 0 .3.1.5.3.5zM6.3 10.5c2.9 0 5.3-2.4 5.3-5.3C11.6 2.4 9.2 0 6.3 0S1 2.4 1 5.3s2.4 5.2 5.3 5.2zm0-9.7c2.5 0 4.4 2 4.4 4.4 0 2.5-2 4.4-4.4 4.4-2.5 0-4.4-2-4.4-4.4S3.9.8 6.3.8z"/><path class="st0" d="M6.1 5.8c.6.2.8.3.8.7v.1c0 .3-.2.5-.5.6h-.1-.1c-.3-.1-.6-.4-.5-.7-.1-.3-.3-.5-.5-.5s-.4.2-.4.5c0 .7.5 1.2 1.1 1.4v.4c0 .2.2.4.4.4s.4-.2.4-.4v-.4c.6-.2 1.1-.7 1.1-1.4 0-1-.8-1.3-1.4-1.5-.6-.2-.7-.3-.7-.7v-.1c0-.3.3-.6.6-.6.4.1.7.4.6.7 0 .2.2.4.4.4s.4-.2.4-.4v-.1c0-.6-.5-1.2-1-1.4v-.3c0-.2-.2-.4-.4-.4s-.4.2-.4.4v.4c-.6.2-1.1.8-1.1 1.4 0 1 .8 1.3 1.3 1.5z"/></svg>