<svg id="Layer_1" xmlns="http://www.w3.org/2000/svg" viewBox="0 0 31.3 40.6"><style>.st0{fill:#fff}</style><path class="st0" d="M22.7 17.1h2.7V19h-2.7zM2.1 25.5H22v2.2H2.1zM26.1 22.6h2.7v2.2h-2.7zM26.1 25.5h2.7v2.2h-2.7zM26.1 17.1h2.7V19h-2.7zM2.1 19.7H22v2.2H2.1zM26.1 28.4h2.7v1.9h-2.7zM2.1 22.6H22v2.2H2.1zM26.1 19.7h2.7v2.2h-2.7zM22.7 22.6h2.7v2.2h-2.7zM22.7 19.7h2.7v2.2h-2.7zM2.1 33.3h16.4v1.3H2.1zM22.7 7.6h6.2v.9h-6.2z"/><path class="st0" d="M0 0v40.6h31.3V0H0zm22.3 2.6h6.8v.6h-6.8v-.6zm-6.8 1.9H20v.6h-4.5v-.6zm0 1.8h3.4v.6h-3.4v-.6zm0 1.6h5.1v.6h-5.1v-.6zm-13.7-5h6.8v1.5H1.8V2.9zm0 2.7h3.4v.6H1.8v-.6zm0 1.4h5.1v.6H1.8V7zm0 1.5h6.8V9H1.8v-.5zm0 1.4h3.4v.6H1.8v-.6zm0 3.2h12.3v1.5H1.8v-1.5zm17.5 22.1H1.5v-3.5h17.8v3.5zm9.9 0h-6.8v-.6h6.8v.6zm0-1.4h-6.8v-.6h6.8v.6zm0-1.5h-6.8v-.6h6.8v.6zm.3-1.5h-28V15.7h28v15.1zM22 9V4.1h7.5V9H22z"/><path class="st0" d="M22.7 4.7h6.2v.9h-6.2zM2.1 28.4H22v1.9H2.1zM22.7 28.4h2.7v1.9h-2.7zM22.7 25.5h2.7v2.2h-2.7zM2.1 17.1H22V19H2.1zM22.7 6.1h6.2V7h-6.2z"/></svg>