<svg id="pdf_icon" xmlns="http://www.w3.org/2000/svg" viewBox="0 0 34.3 45.2"><style>.st1{stroke:#000;stroke-width:.25;stroke-miterlimit:10}</style><path id="Path_62" d="M25.1 36.4v-9.1h-7.7v9.1H14l7.3 8.8 7.2-8.8h-3.4z"/><path fill="none" d="M25.6 9.1h5.5l-5.5-5.5z"/><path d="M0 41.7h16.3l-1.5-1.8h-13V19.2H0zM25.1 0H0v7.6h1.8V1.8h22V10c0 .5.4.9.9.9h7.7v29h-4.7l-1.5 1.8h8.1V9.2L25.1 0zm.5 9.1V3.6l5.5 5.5h-5.5z"/><g id="Group_28" transform="translate(2.662 9.965)"><path id="Path_65" class="st1" d="M0 6.9V0h2.2c.5 0 1.1 0 1.6.1.4.1.7.3 1 .7.3.4.4.9.4 1.3s-.1.7-.2 1.1c-.1.3-.3.5-.6.7-.2.1-.4.3-.7.3-.5.1-1 .1-1.4.1h-.9v2.6H0zm1.4-5.7v2h.8c.4 0 .7 0 1.1-.1.2-.1.3-.2.4-.3.1-.2.2-.3.2-.5s-.1-.4-.2-.6c-.3-.3-.5-.5-.7-.5-.3 0-.7-.1-1 0h-.6z"/><path id="Path_66" class="st1" d="M6.4 0h2.5c.4 0 .9 0 1.3.1s.8.3 1 .6c.3.3.5.7.7 1.1.2.5.2 1.1.2 1.6s-.1 1-.2 1.5-.4.9-.7 1.2c-.3.2-.6.4-1 .5-.3.2-.7.3-1.2.2H6.4V0zm1.4 1.2v4.5h1c.3 0 .6 0 .8-.1.2 0 .4-.2.6-.3.2-.2.3-.4.4-.7.1-.4.1-.8.1-1.3 0-.4 0-.8-.1-1.2-.1-.2-.2-.5-.4-.7-.2 0-.4-.1-.6-.2-.4 0-.8-.1-1.2 0h-.6z"/><path id="Path_67" class="st1" d="M13.4 6.9V0h4.7v1.2h-3.3v1.6h2.9V4h-2.9v2.9h-1.4z"/></g></svg>