<svg xmlns="http://www.w3.org/2000/svg" viewBox="0 0 116.83 116.83">
  <title>icon-checkmark_1</title>
  <g>
    <path d="M58.43,0a58.41,58.41,0,1,0,58.4,58.43A58.41,58.41,0,0,0,58.43,0Z" fill="#fff" fill-rule="evenodd"/>
    <g>
      <g opacity="0.85">
        <path d="M116.83,58.43A58.41,58.41,0,1,1,58.43,0h0a58.41,58.41,0,0,1,58.4,58.43" fill="#a2cc97" fill-rule="evenodd"/>
        <path d="M111.35,58.43a52.92,52.92,0,1,1-52.92-53h0a52.93,52.93,0,0,1,52.92,53" fill="#729b65" fill-rule="evenodd"/>
      </g>
      <path d="M58.43,9.44a49,49,0,1,1-49,49,49,49,0,0,1,49-49Z" fill="#a2cc97" fill-rule="evenodd"/>
      <polygon points="81.76 31.79 49.31 64.59 34.11 49.56 22.07 61.73 49.44 88.81 93.94 43.84 81.76 31.79" fill="#5d7c52"/>
    </g>
  </g>
</svg>
