<svg id="Layer_1" xmlns="http://www.w3.org/2000/svg" viewBox="0 0 40.9 33.6"><style>.st0{fill:#fff}</style><g id="Money_1_"><g id="Group_277"><g id="Group_275" transform="translate(0 8.422)"><path id="Path_193" class="st0" d="M12.6 25.2C5.6 25.2 0 19.6 0 12.6S5.6 0 12.6 0s12.6 5.6 12.6 12.6-5.6 12.6-12.6 12.6zm0-22.9C6.9 2.3 2.3 6.9 2.3 12.6s4.6 10.3 10.3 10.3 10.3-4.6 10.3-10.3c0-5.7-4.6-10.3-10.3-10.3z"/></g><g id="Group_276" transform="translate(8.631 12.599)"><path id="Path_194" class="st0" d="M3.2 17v-2.1c-1.1 0-2.2-.3-3.2-.9l.5-1.4c.9.6 1.9.9 3 .9 1.5 0 2.4-.8 2.4-2 0-1.1-.8-1.9-2.4-2.4C1.5 8.2.1 7.2.1 5.4c0-1.8 1.4-3.2 3.1-3.3V0h1.3v2c.9 0 1.9.3 2.7.7l-.4 1.4C6 3.6 5 3.4 4.1 3.4c-1.6 0-2.2 1-2.2 1.8 0 1.1.8 1.6 2.6 2.4 2.2.9 3.2 1.9 3.2 3.8s-1.4 3.4-3.3 3.5v2.2H3.2V17z"/></g><path id="Path_195" class="st0" d="M40.8 3.3C40.5 1.5 35.4 0 29.1 0c-6.3 0-11.3 1.5-11.7 3.3v2.6c.3 1.8 5.4 3.3 11.7 3.3s11.3-1.5 11.7-3.3V3.3z"/><path id="Path_196" class="st0" d="M29.1 10.3c-2.5 0-5.1-.2-7.6-.8 1.2 1 2.2 2.1 3.1 3.3 1.5.2 3 .3 4.5.3 6.3 0 11.3-1.5 11.7-3.3V7.6c-1.5 1.7-6.7 2.7-11.7 2.7z"/><path id="Path_197" class="st0" d="M29.1 14.5c-1.2 0-2.4-.1-3.6-.1.4.9.8 1.7 1 2.6.8.1 1.7.1 2.6.1 6.3 0 11.3-1.5 11.7-3.3v-2.1c-1.5 1.8-6.7 2.8-11.7 2.8z"/><path id="Path_198" class="st0" d="M29.1 18.4c-.8 0-1.5 0-2.2-.1.1.8.2 1.7.3 2.6.6 0 1.3.1 1.9.1 6.3 0 11.3-1.5 11.7-3.3v-2.1c-1.5 1.8-6.7 2.8-11.7 2.8z"/><path id="Path_199" class="st0" d="M29.1 22.2c-.7 0-1.3 0-2-.1-.1.9-.2 1.8-.5 2.6.8.1 1.7.1 2.5.1 6.3 0 11.3-1.5 11.7-3.3v-2.2c-1.5 2-6.7 2.9-11.7 2.9z"/><path id="Path_200" class="st0" d="M29.1 26.2c-1 0-1.9-.1-2.9-.1-.4.8-.7 1.6-1.2 2.4 1.4.1 2.8.2 4.2.2 6.3 0 11.3-1.5 11.7-3.3v-2.1c-1.6 2-6.8 2.9-11.8 2.9z"/></g></g></svg>