<svg xmlns="http://www.w3.org/2000/svg" viewBox="0 0 31.8 39.4"><path d="M0 0v39.4h31.8V0H0zm2.9 2.4h26v2.9h-26V2.4zm18.6 13.2h-4.1c-.1 0-.2-.1-.2-.2v-.2c0-.1.1-.2.2-.2h4.1c.1 0 .2.1.2.2v.2c0 .1-.1.2-.2.2zm.2 2.8v.2c0 .1-.1.2-.2.2h-4.1c-.1 0-.2-.1-.2-.2v-.2c0-.1.1-.2.2-.2h4.1c.1-.1.2 0 .2.2 0-.1 0 0 0 0zm-4.2-6c-.1 0-.2-.1-.2-.2V12c0-.1.1-.2.2-.2h7.9c.1 0 .2.1.2.2v.2c0 .1-.1.2-.2.2h-7.9zm-.3 13.7c0-.1.1-.2.2-.2h4.1c.1 0 .2.1.2.2v.2c0 .1-.1.2-.2.2h-4.1c-.1 0-.2-.1-.2-.2v-.2zm0 6.3c0-.1.1-.2.2-.2h4.1c.1 0 .2.1.2.2v.2c0 .1-.1.2-.2.2h-4.1c-.1 0-.2-.1-.2-.2v-.2zM2.9 11.8c0-.1.1-.2.2-.2h4.1c.1 0 .2.1.2.2v.2c0 .1-.1.2-.2.2H3.1c-.1 0-.2-.1-.2-.2v-.2zm0 6.2c0-.1.1-.2.2-.2h6c.1 0 .2.1.2.2v.2c0 .1-.1.2-.2.2h-6c-.1 0-.2-.1-.2-.2V18zm0 4.2c0-.1.1-.2.2-.2h6c.1 0 .2.1.2.2v.2c0 .1-.1.2-.2.2h-6c-.1 0-.2-.1-.2-.2v-.2zm6.4 13.7c0 .1-.1.2-.2.2h-6c-.1 0-.2-.1-.2-.2v-.2c0-.1.1-.2.2-.2h6c.1 0 .2.1.2.2v.2zm2-3.2c0 .1-.1.2-.2.2h-8c-.1 0-.2-.1-.2-.2v-.2c0-.1.1-.2.2-.2H11c.1 0 .2.1.2.2v.2zm0-3.2c0 .1-.1.2-.2.2h-8c-.1 0-.2-.1-.2-.2v-.2c0-.2.1-.3.2-.3H11c.1 0 .2.1.2.2v.3zm0-3.2c0 .1-.1.2-.2.2h-8c-.1 0-.2-.1-.2-.2v-.2c0-.1.1-.2.2-.2H11c.1 0 .2.1.2.2v.2zm0-11.2c0 .1-.1.2-.2.2h-8c-.1 0-.2-.1-.2-.2v-.2c0-.1.1-.2.2-.2H11c.1 0 .2.1.2.2v.2zm3.2 20.8c0 .1-.1.2-.2.2h-1.8c-.1 0-.2-.1-.2-.2v-.2c0-.1.1-.2.2-.2h1.8c.1 0 .2.1.2.2v.2zm0-3.2c0 .1-.1.2-.2.2h-1.8c-.1 0-.2-.1-.2-.2v-.2c0-.1.1-.2.2-.2h1.8c.1 0 .2.1.2.2v.2zm0-3.2c0 .1-.1.2-.2.2h-1.8c-.1 0-.2-.1-.2-.2v-.2c0-.1.1-.2.2-.2h1.8c.1 0 .2.1.2.2v.2zm0-3.2c0 .1-.1.2-.2.2h-1.8c-.1 0-.2-.1-.2-.2v-.2c0-.1.1-.2.2-.2h1.8c.1 0 .2.1.2.2v.2zm0-3.9c0 .1-.1.2-.2.2h-1.8c-.1 0-.2-.1-.2-.2v-.2c0-.1.1-.2.2-.2h1.8c.1 0 .2.1.2.2v.2zm0-4.2c0 .1-.1.2-.2.2h-1.8c-.1 0-.2-.1-.2-.2V18c0-.1.1-.2.2-.2h1.8c.1 0 .2.1.2.2v.2zm0-3.1c0 .1-.1.2-.2.2h-1.8c-.1 0-.2-.1-.2-.2v-.2c0-.1.1-.2.2-.2h1.8c.1 0 .2.1.2.2v.2zm0-3.1c0 .1-.1.2-.2.2h-1.8c-.1 0-.2-.1-.2-.2v-.2c0-.1.1-.2.2-.2h1.8c.1 0 .2.1.2.2v.2zm0-3.3c0 .1-.1.2-.2.2H3.1c-.1 0-.2-.1-.2-.2v-.2c0-.1.1-.2.2-.2h11.2c.1 0 .2.1.2.2v.2zm11.1 27.2c0 .1-.1.2-.2.2h-7.9c-.1 0-.2-.1-.2-.2v-.2c0-.1.1-.2.2-.2h7.9c.1 0 .2.1.2.2v.2zm0-6.4c0 .1-.1.2-.2.2h-7.9c-.1 0-.2-.1-.2-.2v-.2c0-.1.1-.2.2-.2h7.9c.1 0 .2.1.2.2v.2zm3.3 6.4c0 .1-.1.2-.2.2h-1.8c-.1 0-.2-.1-.2-.2v-.2c0-.1.1-.2.2-.2h1.8c.1 0 .2.1.2.2v.2zm0-3.2c0 .1-.1.2-.2.2h-1.8c-.1 0-.2-.1-.2-.2v-.2c0-.1.1-.2.2-.2h1.8c.1 0 .2.1.2.2v.2zm0-3.2c0 .1-.1.2-.2.2h-1.8c-.1 0-.2-.1-.2-.2v-.2c0-.1.1-.2.2-.2h1.8c.1 0 .2.1.2.2v.2zm0-3.2c0 .1-.1.2-.2.2h-1.8c-.1 0-.2-.1-.2-.2v-.2c0-.1.1-.2.2-.2h1.8c.1 0 .2.1.2.2v.2zm0-3.9c0 .1-.1.2-.2.2H17.5c-.1 0-.2-.1-.2-.2v-.2c0-.1.1-.2.2-.2h11.2c.1 0 .2.1.2.2v.2zM26.8 15c.1 0 .1 0 0 0h1.8c.1 0 .2.1.2.2v.2c0 .1-.1.2-.2.2h-1.8c-.1 0-.2-.1-.2-.2v-.2c0-.1.1-.2.2-.2zm-.2-2.8V12c0-.1.1-.2.2-.2h1.8c.1 0 .2.1.2.2v.2c0 .1-.1.2-.2.2h-1.8c-.1 0-.1-.1-.2-.2zm.2 6c.1 0 .1 0 0 0h1.8c.1 0 .2.1.2.2v.2c0 .1-.1.2-.2.2h-1.8c-.1 0-.2-.1-.2-.2v-.2c0-.2.1-.2.2-.2zm2.1-9.5c0 .1-.1.2-.2.2H17.5c-.1 0-.2-.1-.2-.2v-.2c0-.1.1-.2.2-.2h11.2c.1 0 .2.1.2.2v.2z" fill="#fff"/></svg>