<svg xmlns="http://www.w3.org/2000/svg" viewBox="0 0 14 20">
  <defs>
    <style>
      .cls-1 {
        fill: #010101;
      }
    </style>
  </defs>
  <g id="Group_10" data-name="Group 10" transform="translate(-0.586 -0.853)">
    <path id="Path_23" data-name="Path 23" class="cls-1" d="M12.091,8.75V5A5.054,5.054,0,0,0,7,0,5.054,5.054,0,0,0,1.909,5V8.75A1.893,1.893,0,0,0,0,10.625v7.5A1.893,1.893,0,0,0,1.909,20H12.091A1.893,1.893,0,0,0,14,18.125v-7.5A1.893,1.893,0,0,0,12.091,8.75ZM3.182,5a3.819,3.819,0,0,1,7.636,0V8.75H3.182Zm9.545,13.125a.631.631,0,0,1-.636.625H1.909a.631.631,0,0,1-.636-.625v-7.5A.631.631,0,0,1,1.909,10H12.091a.631.631,0,0,1,.636.625Z" transform="translate(0.586 0.853)"/>
    <path id="Path_24" data-name="Path 24" class="cls-1" d="M113.879,237.5a1.367,1.367,0,0,0-1.379,1.354,1.346,1.346,0,0,0,.689,1.165v1.544a.689.689,0,0,0,1.379,0v-1.544a1.346,1.346,0,0,0,.689-1.165A1.367,1.367,0,0,0,113.879,237.5Z" transform="translate(-106.292 -224.616)"/>
  </g>
</svg>
