<svg xmlns="http://www.w3.org/2000/svg" viewBox="0 0 24.777 29.283"><defs><style>.cls-1{fill:#fff}</style></defs><g id="btn-workbook"><g id="Group_1" data-name="Group 1" transform="translate(0 2.302)"><path id="Path_1" data-name="Path 1"  stroke-width="1" class="cls-1" d="M19.844 16.2H5.584a3.353 3.353 0 0 0-3.348 3.348v3.034H.812c-.456 0-.812.527-.812 1.182s.356 1.182.812 1.182h1.439v3.561H.812C.37 28.508 0 29.035 0 29.69s.356 1.182.812 1.182h1.439v3.3H.812C.37 34.178 0 34.7 0 35.36s.356 1.182.812 1.182h1.439v3.291A3.353 3.353 0 0 0 5.6 43.181h14.26a3.341 3.341 0 0 0 3.333-3.348v-20.3a3.341 3.341 0 0 0-3.349-3.333zm2.009 23.676a2.006 2.006 0 0 1-2.009 2.009H5.584a2.006 2.006 0 0 1-2.009-2.009v-3.291h1.4c.456 0 .812-.527.812-1.182s-.37-1.182-.812-1.182h-1.4v-3.3h1.4c.456 0 .812-.541.812-1.182s-.37-1.182-.812-1.182h-1.4v-3.568h1.4c.456 0 .812-.527.812-1.182s-.37-1.182-.812-1.182h-1.4v-3.092a2.006 2.006 0 0 1 2.009-2.009h14.26a2.006 2.006 0 0 1 2.009 2.009v20.343z" transform="translate(0 -16.2)"/></g><g id="Group_2" data-name="Group 2" transform="translate(14.302)"><path  stroke-width="1" id="Path_2" data-name="Path 2" class="cls-1" d="M110.842 1.717a1.357 1.357 0 0 0-.826-1.482 1.341 1.341 0 0 0-1.681.214l-.015-.014L100.4 16l.171 2.849 2.365-1.567 7.92-15.57z" transform="translate(-100.4 -.042)"/></g><g id="Group_8" data-name="Group 8" transform="translate(8.704 8.057)"><g id="Group_3" data-name="Group 3"><path  stroke-width="1" id="Rectangle_7" data-name="Rectangle 7" class="cls-1" d="M0 0h10.086v1.282H0z"/></g><g id="Group_4" data-name="Group 4" transform="translate(0 3.732)"><path id="Rectangle_8"  stroke-width="1" data-name="Rectangle 8" class="cls-1" d="M0 0h10.086v1.282H0z"/></g><g id="Group_5" data-name="Group 5" transform="translate(0 7.579)"><path  stroke-width="1" id="Rectangle_9" data-name="Rectangle 9" class="cls-1" d="M0 0h10.086v1.282H0z"/></g><g id="Group_6" data-name="Group 6" transform="translate(0 10.869)"><path id="Rectangle_10"  stroke-width="1" data-name="Rectangle 10" class="cls-1" d="M0 0h10.086v1.282H0z"/></g><g id="Group_7" data-name="Group 7" transform="translate(0 14.317)"><path id="Rectangle_11"  stroke-width="1" data-name="Rectangle 11" class="cls-1" d="M0 0h10.086v1.282H0z"/></g></g></g></svg>