<svg xmlns="http://www.w3.org/2000/svg" viewBox="0 0 32.5 26.71">
  <title>icon-map</title>
  <g>
    <path d="M0,11.41l4.64,15.3,6.67-3.92,7.72.39,5.13-4.71,8.34-.59L26.22,4.94l-7.16-.29-4.81,4h0l-1.35-.2-.58.89L14,9.61l1.47,4.48-.38.52-.27.37.49.49L15.7,15l.08-.12,2.38,7.26-7.11-.36L5.22,25.24,3.35,19.09l.62.2.22-.65c-.4-.12-.77-.24-1.09-.36L1.16,11.84l4-2.51-.53-.82Zm16.5,2.51L17,13.3l-.45-.54-.28.37L15,9.37l4.41-3.69,6.15.15,3.07,6.3-.42-.29-.34.6q.68.46,1.41,1L31,17l-7.21.52-4.69,4.31Z" fill="#fff"/>
    <path d="M4.1,4.64A5.06,5.06,0,0,0,5.15,7.59c1,1.38,3.59,5.79,3.59,5.79S11.33,9,12.32,7.59a5.06,5.06,0,0,0,1.06-2.95,4.64,4.64,0,1,0-9.28,0Zm2.11-.36a2.53,2.53,0,1,1,2.53,2.5A2.52,2.52,0,0,1,6.21,4.28Z" fill="#fff"/>
    <path d="M11.25,19.73,11.07,19a5.74,5.74,0,0,0,.87-.61l.49.49A6.29,6.29,0,0,1,11.25,19.73Z" fill="#fff"/>
    <path d="M6.7,19.93,5.54,19.7,5.77,19l1.1.22Z" fill="#fff"/>
    <path d="M21.27,9.29l-.06.7a3.41,3.41,0,0,0-1,.29l0,0-.37-.58.12-.06A4.19,4.19,0,0,1,21.27,9.29Z" fill="#fff"/>
    <path d="M13.58,17.77l-.49-.48c.28-.31.55-.65.82-1l.49.49C14.13,17.12,13.85,17.46,13.58,17.77Z" fill="#fff"/>
    <path d="M18.48,10.64l.37.59A11,11,0,0,0,18,12l-.44-.53A11.26,11.26,0,0,1,18.48,10.64Z" fill="#fff"/>
    <path d="M24.24,9.72l-.33.62a8,8,0,0,0-1.08-.29l.06-.7A8.66,8.66,0,0,1,24.24,9.72Z" fill="#fff"/>
    <path d="M9.51,19.5l.18.68-.5,0c-.27,0-.57,0-.88,0l.17-.67A8.12,8.12,0,0,0,9.51,19.5Z" fill="#fff"/>
    <path d="M26.84,11l-.35.6q-.56-.33-1.09-.59l.32-.61Q26.27,10.64,26.84,11Z" fill="#fff"/>
  </g>
</svg>
