<svg id="pdf_icon" data-name="pdf icon" xmlns="http://www.w3.org/2000/svg" viewBox="0 0 34.262 45.205"><defs><style>.cls-3{fill:#fff}.cls-4{stroke:#000;stroke-miterlimit:10;stroke-width:.25px}</style><linearGradient id="linear-gradient" x1=".5" x2=".5" y2=".349" gradientUnits="objectBoundingBox"><stop offset="0" stop-color="#c8d325"/><stop offset="1" stop-color="#f3e500"/></linearGradient></defs><path id="Path_61" data-name="Path 61" d="M27.8 4H4v40.837h32.442V12.645z" transform="translate(-3.09 -3.09)" fill="none"/><path id="Path_62" data-name="Path 62" d="M72.7 129.146V120h-7.71v9.146H61.6l7.257 8.759 7.235-8.759z" transform="translate(-47.586 -92.7)" fill="url(#linear-gradient)"/><path id="Path_63" data-name="Path 63" class="cls-3" d="M25.094 0H0v41.747h16.335l-1.5-1.82H1.82V1.82H23.8v8.19a.913.913 0 0 0 .91.91h7.735v29.007H27.71l-1.5 1.82h8.054V9.168zm.523 9.1V3.572L31.145 9.1z"/><path id="Path_64" data-name="Path 64" class="cls-3" d="M24.707 38.009a2.282 2.282 0 0 1-2.275-2.275V33.3H0v11.6h26.072v-6.891z" transform="translate(0 -25.724)"/><g id="Group_28" data-name="Group 28" transform="translate(2.662 9.965)"><path id="Path_65" data-name="Path 65" class="cls-4" d="M11.7 50.671V43.8h2.23a7.674 7.674 0 0 1 1.638.114 1.726 1.726 0 0 1 .978.683 2.1 2.1 0 0 1 .41 1.342 2.188 2.188 0 0 1-.228 1.069 1.747 1.747 0 0 1-.592.683 1.877 1.877 0 0 1-.728.319 7.908 7.908 0 0 1-1.433.091h-.91v2.571zm1.388-5.71v1.957h.751a3.6 3.6 0 0 0 1.092-.114.91.91 0 0 0 .432-.341.885.885 0 0 0 .159-.523.824.824 0 0 0-.228-.614.87.87 0 0 0-.569-.3 8.2 8.2 0 0 0-1-.046h-.637z" transform="translate(-11.7 -43.8)"/><path id="Path_66" data-name="Path 66" class="cls-4" d="M39.8 43.8h2.548a4.675 4.675 0 0 1 1.3.136 2.182 2.182 0 0 1 1.047.637 3.024 3.024 0 0 1 .66 1.115 4.765 4.765 0 0 1 .228 1.615 4.587 4.587 0 0 1-.2 1.456 3 3 0 0 1-.728 1.206 2.682 2.682 0 0 1-.978.546 4.354 4.354 0 0 1-1.229.136H39.8zm1.388 1.16v4.55h1.047a3.73 3.73 0 0 0 .842-.068 1.241 1.241 0 0 0 .569-.3 1.4 1.4 0 0 0 .364-.66 4.646 4.646 0 0 0 .137-1.251 4.353 4.353 0 0 0-.137-1.229 1.69 1.69 0 0 0-.387-.66 1.213 1.213 0 0 0-.637-.319 6.091 6.091 0 0 0-1.138-.068z" transform="translate(-33.407 -43.8)"/><path id="Path_67" data-name="Path 67" class="cls-4" d="M70.4 50.671V43.8h4.709v1.16h-3.321v1.615h2.867v1.16h-2.867v2.935z" transform="translate(-57.046 -43.8)"/></g></svg>