<svg id="growth_icon_1_" xmlns="http://www.w3.org/2000/svg" viewBox="0 0 32.9 33.9"><style>.st0{fill:#fff}</style><g id="infographic_1_" transform="translate(4.946 11.757)"><path id="Path_201" class="st0" d="M19.3 4v18.1h5.2V0l-5.2 4z"/><path id="Path_202" class="st0" d="M9.1 11.6L6.4 9.3v12.8h5.2V9.7l-2.5 1.9z"/><path id="Path_203" class="st0" d="M3.7 6.8L0 10.3v11.8h5.2V8.2L3.7 6.8z"/><path id="Path_204" class="st0" d="M12.9 8.8v13.3h5.2V4.9l-5.2 3.9z"/></g><path id="arrow_1_" class="st0" d="M32.9 5.7h-6l1.5 1.9-14.1 10.7-5.7-5-8.6 8 1.8 2L8.6 17l5.5 4.9 16-12.1 1.5 1.8 1.3-5.9z"/><path id="_x24__1_" class="st0" d="M16 12.7v-1.5c-.9 0-1.8-.3-2.6-.7l.5-1.8c.8.4 1.7.7 2.6.7.9 0 1.5-.4 1.5-1s-.5-1-1.7-1.4c-1.7-.6-2.8-1.3-2.8-2.8 0-1.5 1.2-2.6 2.6-2.8V0h1.5v1.4c.8 0 1.6.2 2.3.5l-.5 1.8c-.7-.4-1.5-.5-2.2-.5-1 0-1.3.5-1.3.9 0 .5.5.8 1.9 1.3 1.8.7 2.6 1.5 2.6 2.9 0 1.5-1.2 2.8-2.8 2.9v1.6l-1.6-.1z"/></svg>