<svg id="Layer_1" xmlns="http://www.w3.org/2000/svg" viewBox="0 0 175.3 62.2"><style>.st0{enable-background:new}</style><g class="st0"><path d="M84.5.1v2.1h-5.6v3.6h4.7v2.1h-4.7v5.2h-2.7V.1h8.3zM96.7 13.1h-2.1c-.2 0-.4-.1-.6-.2-.1-.1-.3-.3-.3-.4l-.9-2.5h-5.2l-.9 2.5c-.1.1-.2.3-.3.4s-.3.2-.6.2h-2.1L88.8 0h2.8l5.1 13.1zm-8.4-4.9h3.9l-1.4-4c-.1-.2-.2-.5-.3-.7l-.3-.9-.3.9c-.1.3-.2.5-.3.7l-1.3 4zM105 2.6l-.3.3c-.1.1-.2.1-.3.1-.1 0-.3 0-.4-.1-.2-.1-.3-.2-.5-.3-.2-.1-.4-.2-.7-.3-.3-.1-.6-.1-.9-.1-.6 0-1.1.1-1.4.4-.3.3-.5.6-.5 1.1 0 .3.1.5.3.7.2.2.4.4.7.5.3.1.6.3 1 .4s.7.2 1.1.4.7.3 1.1.5c.4.2.7.4 1 .7.3.3.5.6.7 1 .2.4.3.8.3 1.4 0 .6-.1 1.2-.3 1.7-.2.5-.5 1-.9 1.4-.4.4-.9.7-1.4.9-.6.2-1.2.3-1.9.3-.4 0-.8 0-1.2-.1-.4-.1-.8-.2-1.2-.4-.4-.1-.7-.3-1.1-.5-.3-.2-.6-.4-.9-.7l.8-1.3c.1-.1.2-.2.3-.2.1-.1.2-.1.3-.1.2 0 .3.1.5.2s.4.3.6.4c.2.1.5.3.8.4.3.1.7.2 1.1.2.6 0 1.1-.1 1.5-.4s.5-.7.5-1.3c0-.3-.1-.6-.3-.8-.2-.2-.4-.4-.7-.5-.3-.1-.6-.3-.9-.4-.4-.1-.7-.2-1.1-.3s-.7-.3-1.1-.4-.7-.4-.9-.7c-.3-.3-.5-.6-.7-1-.2-.4-.3-.9-.3-1.5 0-.5.1-1 .3-1.4.2-.5.5-.9.8-1.2.4-.4.8-.6 1.4-.9s1.2-.3 1.9-.3c.8 0 1.5.1 2.2.4.7.2 1.2.6 1.7 1l-1 .8zM117.1.1v2.2h-3.8v10.9h-2.7v-11h-3.8V.1h10.3zM125.1 8.6v4.5h-2.7V.1h4.4c.9 0 1.7.1 2.3.3.7.2 1.2.5 1.6.9.4.4.7.8.9 1.3.2.5.3 1.1.3 1.7 0 .6-.1 1.2-.3 1.8s-.5 1-1 1.4-1 .7-1.6.9c-.6.2-1.4.3-2.3.3h-1.6zm0-2h1.7c.8 0 1.5-.2 1.9-.6s.6-1 .6-1.7c0-.3-.1-.6-.1-.9-.1-.3-.2-.5-.5-.7-.2-.2-.5-.3-.8-.4-.3-.1-.7-.2-1.1-.2h-1.7v4.5zM133.3 13.1V3.8h1.5c.3 0 .4 0 .5.1.1.1.2.2.2.5l.1.9c.3-.5.6-.9 1-1.3s.8-.5 1.4-.5c.4 0 .8.1 1 .3l-.2 1.8c0 .1-.1.2-.1.2-.1 0-.1.1-.3.1h-.9c-.5 0-.8.1-1.1.4s-.5.6-.7 1V13h-2.4zM142.9 1.2c0 .2 0 .4-.1.6s-.2.3-.3.5c-.1.1-.3.2-.5.3-.2.1-.4.1-.6.1-.2 0-.4 0-.6-.1-.2-.1-.3-.2-.5-.3-.1-.1-.2-.3-.3-.5s-.1-.4-.1-.6 0-.4.1-.6c.1-.2.2-.3.3-.5.1-.1.3-.2.5-.3.2-.1.4-.1.6-.1.2 0 .4 0 .6.1.2.1.4.2.5.3.1.1.3.3.3.5.1.2.1.4.1.6zm-.3 2.6v9.3h-2.5V3.8h2.5zM144.7 13.1V3.8h1.5c.3 0 .5.1.6.4l.1.6.5-.5c.2-.1.4-.3.6-.4.2-.1.4-.2.6-.2s.5-.1.8-.1c.6 0 1 .2 1.4.5.4.3.7.7.8 1.2.1-.3.3-.5.6-.8s.5-.4.7-.5c.3-.1.5-.2.8-.3.3-.1.6-.1.9-.1.5 0 1 .1 1.4.2.4.2.7.4 1 .7.3.3.5.7.6 1.1.1.4.2.9.2 1.5V13h-2.5V7.2c0-1.1-.5-1.6-1.4-1.6-.2 0-.4 0-.6.1-.2.1-.3.2-.5.3-.1.1-.2.3-.3.5-.1.2-.1.4-.1.7v5.9h-2.5V7.2c0-.6-.1-1-.3-1.3s-.6-.4-1-.4c-.3 0-.6.1-.8.2-.3.1-.5.3-.7.6v6.8h-2.4zM163.9 3.7c.6 0 1.1.1 1.6.3.5.2.9.5 1.3.8.4.4.6.8.8 1.3.2.5.3 1.1.3 1.8v.5c0 .1 0 .2-.1.3 0 .1-.1.1-.2.1H161.7c.1.9.3 1.5.7 1.9.4.4 1 .6 1.6.6.3 0 .6 0 .9-.1s.5-.2.7-.3c.2-.1.4-.2.5-.3s.3-.1.5-.1.3.1.5.2l.7.9c-.3.3-.6.6-.9.8-.3.2-.6.4-1 .5-.3.1-.7.2-1 .2-.3 0-.7.1-1 .1-.6 0-1.3-.1-1.8-.3-.6-.2-1.1-.5-1.5-.9-.4-.4-.7-.9-1-1.6s-.4-1.3-.4-2.2c0-.6.1-1.2.3-1.8.2-.6.5-1 .9-1.5.4-.4.9-.7 1.4-1s1.4-.2 2.1-.2zm.1 1.7c-.6 0-1.1.2-1.4.5-.3.3-.6.8-.7 1.4h3.9c0-.3 0-.5-.1-.7l-.3-.6c-.2-.2-.3-.3-.6-.4-.2-.1-.5-.2-.8-.2zM169.6 13.1V3.8h1.5c.3 0 .4 0 .5.1.1.1.2.2.2.5l.1.9c.3-.5.6-.9 1-1.3s.8-.5 1.4-.5c.4 0 .8.1 1 .3l-.2 1.8c0 .1-.1.2-.1.2s-.1.1-.3.1h-.9c-.5 0-.8.1-1.1.4-.3.2-.5.6-.7 1V13h-2.4z"/></g><g class="st0"><path d="M81.8 22.7v1.5h-4v2.6h3.4v1.5h-3.4v3.8h-2v-9.4h6zM85 23.5c0 .2 0 .3-.1.4s-.1.2-.2.3c-.1.1-.2.2-.4.2-.1.1-.3.1-.4.1-.1 0-.3 0-.4-.1-.1-.1-.2-.1-.3-.2s-.2-.2-.2-.3c-.1-.1-.1-.3-.1-.4 0-.2 0-.3.1-.4.1-.1.1-.2.2-.3.1-.1.2-.2.3-.2.1-.1.3-.1.4-.1.2 0 .3 0 .4.1.1.1.3.1.4.2.1.1.2.2.2.3 0 .1.1.3.1.4zm-.2 1.9v6.7H83v-6.7h1.8zM86.3 32.1v-6.7h1.1c.2 0 .4.1.4.3l.1.5c.1-.1.3-.2.4-.4s.3-.2.5-.3.3-.1.5-.2c.2 0 .4-.1.6-.1.4 0 .7.1 1 .2.3.1.5.3.7.5.2.2.3.5.4.8.1.3.1.7.1 1V32h-1.8v-4.3c0-.4-.1-.7-.3-.9s-.4-.3-.8-.3c-.3 0-.5.1-.7.2s-.4.3-.6.5V32h-1.6zM98.1 32.1c-.2 0-.3 0-.4-.1-.1 0-.2-.1-.2-.3l-.1-.4c-.2.1-.3.3-.5.4s-.3.2-.5.3c-.2.1-.4.1-.5.2-.2 0-.4.1-.6.1-.3 0-.6 0-.8-.1-.2-.1-.5-.2-.6-.3-.2-.2-.3-.3-.4-.6-.1-.2-.1-.5-.1-.8 0-.2.1-.5.2-.7s.3-.5.6-.7c.3-.2.7-.4 1.2-.5.5-.1 1.1-.2 1.9-.2v-.3c0-.4-.1-.7-.3-.9-.2-.2-.4-.3-.8-.3-.2 0-.5 0-.6.1-.2.1-.3.1-.4.2-.1.1-.2.1-.3.2-.1.1-.2.1-.4.1-.1 0-.2 0-.3-.1s-.2-.1-.2-.2l-.3-.6c.4-.4.8-.6 1.3-.8s1-.3 1.5-.3c.4 0 .8.1 1.1.2s.6.3.8.5c.2.2.4.5.5.8.1.3.2.7.2 1.1v4.2h-1zM95.7 31c.3 0 .6-.1.8-.2.2-.1.4-.3.7-.5v-1c-.4 0-.8.1-1.1.1-.3.1-.5.1-.7.2-.2.1-.3.2-.4.3-.1.1-.1.2-.1.4 0 .3.1.4.2.6s.4.1.6.1zM100.3 32.1v-6.7h1.1c.2 0 .4.1.4.3l.1.5c.1-.1.3-.2.4-.4s.3-.2.5-.3c.2-.1.3-.1.5-.2.2 0 .4-.1.6-.1.4 0 .7.1 1 .2.3.1.5.3.7.5.2.2.3.5.4.8.1.3.1.7.1 1V32h-1.8v-4.3c0-.4-.1-.7-.3-.9-.2-.2-.4-.3-.8-.3-.3 0-.5.1-.7.2s-.4.3-.6.5V32h-1.6zM112.5 26.9l-.2.2c-.1 0-.1.1-.2.1s-.2 0-.2-.1-.2-.1-.3-.2-.2-.1-.4-.2c-.1 0-.3-.1-.5-.1-.3 0-.5 0-.7.1s-.4.2-.5.4c-.1.2-.2.4-.3.7-.1.3-.1.6-.1.9 0 .7.1 1.2.4 1.6.3.4.7.5 1.1.5h.4c.1 0 .2-.1.3-.1.1 0 .2-.1.2-.1s.1-.1.2-.1.1-.1.2-.1h.2c.1 0 .2.1.3.2l.5.7c-.2.2-.4.4-.6.5-.2.1-.4.3-.7.3-.2.1-.5.1-.7.2s-.5 0-.7 0c-.4 0-.8-.1-1.2-.2-.4-.2-.7-.4-1-.7-.3-.3-.5-.7-.7-1.1-.2-.4-.2-.9-.2-1.5 0-.5.1-.9.2-1.4.1-.4.4-.8.6-1.1s.6-.5 1-.7c.4-.2.9-.3 1.4-.3.5 0 1 .1 1.3.2.4.2.7.4 1 .7l-.1.7zM116.8 25.3c.4 0 .8.1 1.2.2.4.1.7.3.9.6s.5.6.6 1c.1.4.2.8.2 1.3v.3c0 .1 0 .2-.1.2 0 .1-.1.1-.1.1h-4.2c.1.6.2 1.1.5 1.4.3.3.7.4 1.2.4.2 0 .5 0 .6-.1s.3-.1.5-.2.3-.1.4-.2c.1-.1.2-.1.3-.1.1 0 .2.1.3.2l.5.7c-.2.2-.4.4-.6.5-.2.1-.5.3-.7.3-.2.1-.5.1-.7.2h-.7c-.5 0-.9-.1-1.3-.2-.4-.2-.8-.4-1.1-.7-.3-.3-.5-.7-.7-1.1s-.3-1-.3-1.6c0-.5.1-.9.2-1.3.2-.4.4-.8.6-1.1.3-.3.6-.5 1-.7.5 0 1-.1 1.5-.1zm0 1.3c-.4 0-.8.1-1 .4-.2.2-.4.6-.5 1h2.8c0-.2 0-.4-.1-.5-.1-.2-.1-.3-.2-.4-.1-.1-.2-.2-.4-.3s-.4-.2-.6-.2zM128.3 32.1c-.2 0-.3 0-.4-.1-.1 0-.2-.1-.2-.3l-.1-.4c-.2.1-.3.3-.5.4s-.3.2-.5.3c-.2.1-.4.1-.5.2-.2 0-.4.1-.6.1-.3 0-.6 0-.8-.1-.2-.1-.5-.2-.6-.3-.2-.2-.3-.3-.4-.6-.1-.2-.1-.5-.1-.8 0-.2.1-.5.2-.7s.3-.5.6-.7c.3-.2.7-.4 1.2-.5.5-.1 1.1-.2 1.9-.2v-.3c0-.4-.1-.7-.3-.9-.2-.2-.4-.3-.8-.3-.2 0-.5 0-.6.1-.2.1-.3.1-.4.2-.1.1-.2.1-.3.2-.1.1-.2.1-.4.1-.1 0-.2 0-.3-.1-.1-.1-.2-.1-.2-.2l-.3-.6c.4-.4.8-.6 1.3-.8s1-.3 1.5-.3c.4 0 .8.1 1.1.2.3.1.6.3.8.5s.4.5.5.8c.1.3.2.7.2 1.1v4.2h-1zM126 31c.3 0 .6-.1.8-.2.2-.1.4-.3.7-.5v-1c-.4 0-.8.1-1.1.1-.3.1-.5.1-.7.2-.2.1-.3.2-.4.3s-.1.2-.1.4c0 .3.1.4.2.6.1.1.3.1.6.1zM130.6 32.1v-6.7h1.1c.2 0 .4.1.4.3l.1.5c.1-.1.3-.2.4-.4s.3-.2.5-.3c.2-.1.3-.1.5-.2.2 0 .4-.1.6-.1.4 0 .7.1 1 .2.3.1.5.3.7.5.2.2.3.5.4.8.1.3.1.7.1 1V32h-1.8v-4.3c0-.4-.1-.7-.3-.9-.2-.2-.4-.3-.8-.3-.3 0-.5.1-.7.2s-.4.3-.6.5V32h-1.6zM142.8 32.1c-.2 0-.4-.1-.4-.3l-.2-.6c-.3.3-.6.5-.9.7-.3.2-.7.3-1.2.3-.4 0-.7-.1-1-.2s-.6-.4-.8-.7c-.2-.3-.4-.7-.5-1.1s-.2-.9-.2-1.5c0-.5.1-1 .2-1.4.1-.4.3-.8.6-1.1.3-.3.6-.6.9-.7.4-.2.8-.3 1.2-.3.4 0 .7.1.9.2s.5.3.7.4v-3.5h1.8V32h-1.1zm-2.1-1.3c.3 0 .6-.1.8-.2.2-.1.4-.3.6-.5v-2.9c-.2-.2-.4-.3-.5-.4s-.4-.1-.6-.1c-.2 0-.4 0-.6.1s-.3.2-.5.4-.2.4-.3.7c-.1.3-.1.6-.1 1s0 .7.1.9.1.5.2.6c.1.2.2.3.4.3.1.1.3.1.5.1z"/></g><g class="st0"><path d="M84.1 47.1h-1.5c-.2 0-.3 0-.4-.1-.1-.1-.2-.2-.2-.3l-.6-1.8h-3.8l-.6 1.8c0 .1-.1.2-.2.3s-.2.1-.4.1h-1.5l3.7-9.4h2l3.5 9.4zM78 43.5h2.8l-1-2.9c-.1-.2-.1-.3-.2-.5s-.1-.4-.2-.7c-.1.2-.1.5-.2.7-.1.2-.1.4-.2.5l-1 2.9zM89.4 41.9l-.2.2c-.1 0-.1.1-.2.1s-.2 0-.3-.1-.2-.1-.3-.2-.2-.1-.4-.2-.3-.1-.5-.1c-.3 0-.5 0-.7.1s-.4.2-.5.4c-.1.2-.2.4-.3.7v1c0 .7.1 1.2.4 1.6.3.4.7.5 1.1.5h.4c.1 0 .2-.1.3-.1.1 0 .2-.1.2-.1s.1-.1.2-.1.1-.1.2-.1h.2c.1 0 .2.1.3.2l.5.7c-.2.2-.4.4-.6.5-.2.1-.4.3-.7.3-.2.1-.5.1-.7.2s-.5 0-.7 0c-.4 0-.8-.1-1.2-.2-.4-.2-.7-.4-1-.7-.3-.3-.5-.7-.7-1.1s-.2-.9-.2-1.5c0-.5.1-.9.2-1.4.1-.4.4-.8.6-1.1s.6-.5 1-.7c.4-.2.9-.3 1.4-.3.5 0 1 .1 1.3.2.4.2.7.4 1 .7l-.1.6zM95.5 41.9l-.2.2c-.1 0-.1.1-.2.1s-.2 0-.2-.1-.2-.1-.3-.2-.2-.1-.4-.2-.3-.1-.5-.1c-.3 0-.5 0-.7.1s-.4.2-.5.4c-.1.2-.2.4-.3.7-.1.3-.1.6-.1.9 0 .7.1 1.2.4 1.6.3.4.7.5 1.1.5h.4c.1 0 .2-.1.3-.1.1 0 .2-.1.2-.1s.1-.1.2-.1.1-.1.2-.1h.2c.1 0 .2.1.3.2l.5.7c-.2.2-.4.4-.6.5-.2.1-.4.3-.7.3-.2.1-.5.1-.7.2s-.5 0-.7 0c-.4 0-.8-.1-1.2-.2-.4-.2-.7-.4-1-.7-.3-.3-.5-.7-.7-1.1s-.2-.9-.2-1.5c0-.5.1-.9.2-1.4.1-.4.4-.8.6-1.1s.6-.5 1-.7c.4-.2.9-.3 1.4-.3.5 0 1 .1 1.3.2.4.2.7.4 1 .7l-.1.7zM99.9 40.3c.5 0 1 .1 1.4.2.4.2.8.4 1.1.7.3.3.5.7.7 1.1s.2.9.2 1.4-.1 1-.2 1.4-.4.8-.7 1.1c-.3.3-.6.5-1.1.7-.4.2-.9.2-1.4.2-.5 0-1-.1-1.4-.2-.4-.2-.8-.4-1.1-.7-.3-.3-.5-.7-.7-1.1s-.2-.9-.2-1.4.1-1 .2-1.4.4-.8.7-1.1c.3-.3.6-.5 1.1-.7.4-.1.9-.2 1.4-.2zm0 5.6c.5 0 .9-.2 1.1-.5.2-.4.4-.9.4-1.6 0-.7-.1-1.2-.4-1.6-.2-.4-.6-.5-1.1-.5-.5 0-.9.2-1.2.5s-.4.9-.4 1.6c0 .7.1 1.2.4 1.6.3.3.7.5 1.2.5zM106.1 40.4v4.3c0 .4.1.7.3.9.2.2.4.3.8.3.3 0 .5-.1.7-.2.2-.1.4-.3.6-.5v-4.8h1.8v6.7h-1.1c-.2 0-.4-.1-.4-.3l-.1-.5c-.3.3-.6.5-.9.6-.3.2-.7.2-1.1.2-.4 0-.7-.1-1-.2-.3-.1-.5-.3-.7-.5-.2-.2-.3-.5-.4-.8-.1-.3-.1-.7-.1-1v-4.3h1.6zM111.7 47.1v-6.7h1.1c.2 0 .4.1.4.3l.1.5c.1-.1.3-.2.4-.4s.3-.2.5-.3c.2-.1.3-.1.5-.2.2 0 .4-.1.6-.1.4 0 .7.1 1 .2.3.1.5.3.7.5.2.2.3.5.4.8.1.3.1.7.1 1V47h-1.8v-4.3c0-.4-.1-.7-.3-.9-.2-.2-.4-.3-.8-.3-.3 0-.5.1-.7.2s-.4.3-.6.5V47h-1.6zM126 40.5v6.7h-1.8v-5.4h-3v3.5c0 .2 0 .3.1.4s.2.2.4.2h.2c.1 0 .1 0 .2-.1 0 0 .1 0 .1-.1s.1 0 .1 0h.1l.1.1.5.9c-.2.2-.5.3-.8.4-.3.1-.6.1-1 .1-.3 0-.6 0-.8-.1-.2-.1-.4-.2-.6-.4-.2-.2-.3-.4-.4-.6-.1-.2-.1-.5-.1-.8v-3.6h-.6c-.1 0-.2 0-.2-.1-.1-.1-.1-.2-.1-.3v-.7l1.1-.2.4-1.7c0-.2.2-.3.4-.3h.9v2h4.8zm.3-2c0 .1 0 .3-.1.4-.1.1-.1.2-.2.3s-.2.2-.4.2-.3.1-.4.1c-.1 0-.3 0-.4-.1-.1-.1-.2-.1-.3-.2s-.2-.2-.2-.3c-.1-.1-.1-.3-.1-.4 0-.2 0-.3.1-.4.1-.1.1-.2.2-.3s.2-.2.3-.2c.1-.1.3-.1.4-.1.2 0 .3 0 .4.1s.3.1.4.2.2.2.2.3c0 .1.1.3.1.4zM127.5 47.1v-6.7h1.1c.2 0 .4.1.4.3l.1.5c.1-.1.3-.2.4-.4s.3-.2.5-.3c.2-.1.3-.1.5-.2.2 0 .4-.1.6-.1.4 0 .7.1 1 .2.3.1.5.3.7.5.2.2.3.5.4.8.1.3.1.7.1 1V47h-1.8v-4.3c0-.4-.1-.7-.3-.9-.2-.2-.4-.3-.8-.3-.3 0-.5.1-.7.2s-.4.3-.6.5V47h-1.6zM137.4 40.3c.3 0 .6 0 .8.1s.5.1.7.2h2v.7c0 .1 0 .2-.1.2s-.2.1-.3.1l-.5.1c.1.2.1.4.1.7 0 .3-.1.6-.2.9s-.3.5-.6.7-.5.3-.8.4c-.3.1-.7.2-1.1.2h-.6c-.2.1-.3.2-.3.4 0 .1.1.2.2.3s.3.1.5.1h1.5c.3 0 .5.1.8.1.3.1.5.1.7.3.2.1.4.3.5.5s.2.5.2.8c0 .3-.1.6-.2.9-.1.3-.4.5-.6.8-.3.2-.6.4-1 .5-.4.1-.9.2-1.4.2-.5 0-1 0-1.3-.1s-.7-.2-.9-.4c-.2-.2-.4-.3-.6-.6-.1-.2-.2-.4-.2-.7 0-.3.1-.6.3-.8s.4-.4.7-.5c-.2-.1-.3-.2-.4-.4-.1-.2-.2-.4-.2-.6 0-.2.1-.4.2-.6.1-.2.4-.4.7-.5-.3-.2-.6-.4-.8-.7s-.3-.7-.3-1.1c0-.3.1-.6.2-.9s.3-.5.6-.7c.2-.2.5-.3.9-.4s.4-.2.8-.2zm1.7 7.1c0-.1 0-.2-.1-.3-.1-.1-.2-.1-.3-.2-.1 0-.3-.1-.4-.1H136.6c-.2.1-.3.2-.4.3-.1.1-.1.3-.1.4 0 .1 0 .2.1.3.1.1.1.2.3.2.1.1.3.1.5.2.2 0 .4.1.7.1.3 0 .5 0 .7-.1s.4-.1.5-.2l.3-.3c.1-.1-.1-.2-.1-.3zm-1.7-3.9c.4 0 .6-.1.8-.3.2-.2.3-.4.3-.7 0-.3-.1-.5-.3-.7-.2-.2-.4-.3-.8-.3s-.6.1-.8.3c-.2.2-.3.4-.3.7 0 .3.1.5.3.7.2.2.4.3.8.3z"/></g><g class="st0"><path d="M80.9 54.5c-.1.1-.1.2-.2.2s-.1.1-.2.1-.2 0-.3-.1c-.1-.1-.2-.1-.4-.2-.1-.1-.3-.2-.5-.2-.2-.1-.4-.1-.7-.1-.5 0-.8.1-1 .3-.2.2-.3.5-.3.8 0 .2.1.4.2.5.1.1.3.3.5.4s.4.2.7.3c.3.1.5.2.8.3s.5.2.8.3.5.3.7.5c.2.2.4.4.5.7.1.3.2.6.2 1s-.1.8-.2 1.2c-.1.4-.4.7-.6 1-.3.3-.6.5-1 .7-.4.2-.9.2-1.4.2-.3 0-.6 0-.9-.1s-.6-.1-.9-.3c-.3-.1-.5-.2-.8-.4-.2-.2-.5-.3-.6-.5l.6-.9c0-.1.1-.1.2-.2.1 0 .2-.1.2-.1.1 0 .2 0 .4.1s.3.2.4.3l.6.3c.2.1.5.1.8.1.5 0 .8-.1 1.1-.3.2-.2.4-.5.4-.9 0-.2-.1-.4-.2-.6-.1-.1-.3-.3-.5-.4-.2-.1-.4-.2-.7-.3s-.5-.2-.8-.2-.5-.2-.8-.3c-.3-.1-.5-.3-.7-.5-.2-.2-.4-.4-.5-.7s-.2-.7-.2-1.1c0-.4.1-.7.2-1 .1-.3.3-.6.6-.9.3-.3.6-.5 1-.6.4-.2.8-.2 1.3-.2.6 0 1.1.1 1.6.3.5.2.9.4 1.2.7l-.6.8zM84.8 53.5c0 .2 0 .3-.1.4s-.1.2-.2.3c-.1.1-.2.2-.4.2-.1.1-.3.1-.4.1-.1 0-.3 0-.4-.1-.1-.1-.2-.1-.3-.2s-.2-.2-.2-.3c-.1-.1-.1-.3-.1-.4 0-.2 0-.3.1-.4.1-.1.1-.2.2-.3.1-.1.2-.2.3-.2.1-.1.3-.1.4-.1.2 0 .3 0 .4.1.1.1.3.1.4.2.1.1.2.2.2.3 0 .1.1.3.1.4zm-.2 1.9v6.7h-1.8v-6.7h1.8zM86.1 62.1v-6.7h1.1c.2 0 .4.1.4.3l.1.4c.1-.1.2-.2.4-.3.1-.1.3-.2.4-.3.1-.1.3-.1.5-.2.2 0 .3-.1.5-.1.4 0 .8.1 1 .3s.5.5.6.9c.1-.2.2-.4.4-.5.2-.2.3-.3.5-.4.2-.1.4-.2.6-.2.2 0 .4-.1.6-.1.4 0 .7.1 1 .2.3.1.5.3.7.5.2.2.3.5.5.8.1.3.2.7.2 1.1v4.3h-1.8v-4.3c0-.8-.3-1.2-1-1.2-.2 0-.3 0-.4.1-.1 0-.2.1-.3.2-.1.1-.2.2-.2.4s-.1.3-.1.5v4.3H90v-4.3c0-.4-.1-.7-.2-.9-.2-.2-.4-.3-.7-.3-.2 0-.4 0-.6.1-.2.1-.4.2-.5.4V62h-1.9zM98.8 55.4v4.3c0 .4.1.7.3.9.2.2.4.3.8.3.3 0 .5-.1.7-.2.2-.1.4-.3.6-.5v-4.8h1.8v6.7h-1.1c-.2 0-.4-.1-.4-.3l-.1-.5c-.3.3-.6.5-.9.6-.3.2-.7.2-1.1.2-.4 0-.7-.1-1-.2-.3-.1-.5-.3-.7-.5-.2-.2-.3-.5-.4-.8s-.2-.7-.2-1v-4.3h1.7zM106.2 52.4v9.7h-1.8v-9.7h1.8zM112.2 62.1c-.2 0-.3 0-.4-.1s-.2-.1-.2-.3l-.1-.4c-.2.1-.3.3-.5.4s-.3.2-.5.3c-.2.1-.4.1-.5.2-.2 0-.4.1-.6.1-.3 0-.6 0-.8-.1-.2-.1-.5-.2-.6-.3-.2-.2-.3-.3-.4-.6-.1-.2-.1-.5-.1-.8 0-.2.1-.5.2-.7.1-.2.3-.5.6-.7.3-.2.7-.4 1.2-.5.5-.1 1.1-.2 1.9-.2v-.3c0-.4-.1-.7-.3-.9-.2-.2-.4-.3-.8-.3-.2 0-.5 0-.6.1-.2.1-.3.1-.4.2-.1.1-.2.1-.3.2-.1.1-.2.1-.4.1-.1 0-.2 0-.3-.1s-.2-.1-.2-.2l-.3-.6c.4-.4.8-.6 1.3-.8s1-.3 1.5-.3c.4 0 .8.1 1.1.2s.6.3.8.5.4.5.5.8c.1.3.2.7.2 1.1v4.2h-1zm-2.4-1.1c.3 0 .6-.1.8-.2.2-.1.4-.3.7-.5v-1c-.4 0-.8.1-1.1.1s-.5.1-.7.2c-.2.1-.3.2-.4.3-.1.1-.1.2-.1.4 0 .3.1.4.2.6.1.1.3.1.6.1zM121.3 55.5v6.7h-1.8v-5.4h-3v3.5c0 .2 0 .3.1.4.1.1.2.2.4.2h.2s.1 0 .2-.1.1 0 .1-.1h.2l.1.1.5.9c-.2.2-.5.3-.8.4s-.6.1-1 .1c-.3 0-.6 0-.8-.1s-.4-.2-.6-.4c-.2-.2-.3-.4-.4-.6-.1-.2-.1-.5-.1-.8v-3.6h-.6c-.1 0-.2 0-.2-.1-.1-.1-.1-.2-.1-.3v-.7l1.1-.2.4-1.7c0-.2.2-.3.4-.3h.9v2h4.8zm.2-2c0 .1 0 .3-.1.4-.1.1-.1.2-.2.3s-.2.2-.4.2-.3.1-.4.1c-.1 0-.3 0-.4-.1s-.2-.1-.3-.2-.2-.2-.2-.3c-.1-.1-.1-.3-.1-.4 0-.2 0-.3.1-.4.1-.1.1-.2.2-.3s.2-.2.3-.2.3-.1.4-.1c.2 0 .3 0 .4.1s.3.1.4.2.2.2.2.3c.1.1.1.3.1.4zM125.8 55.3c.5 0 1 .1 1.4.2.4.2.8.4 1.1.7.3.3.5.7.7 1.1s.2.9.2 1.4-.1 1-.2 1.4-.4.8-.7 1.1c-.3.3-.6.5-1.1.7-.4.2-.9.2-1.4.2-.5 0-1-.1-1.4-.2-.4-.2-.8-.4-1.1-.7-.3-.3-.5-.7-.7-1.1s-.2-.9-.2-1.4.1-1 .2-1.4.4-.8.7-1.1c.3-.3.6-.5 1.1-.7.5-.1.9-.2 1.4-.2zm0 5.6c.5 0 .9-.2 1.1-.5.2-.4.4-.9.4-1.6 0-.7-.1-1.2-.4-1.6-.2-.4-.6-.5-1.1-.5-.5 0-.9.2-1.2.5s-.4.9-.4 1.6c0 .7.1 1.2.4 1.6.3.3.7.5 1.2.5zM130.3 62.1v-6.7h1.1c.2 0 .4.1.4.3l.1.5c.1-.1.3-.2.4-.4s.3-.2.5-.3c.2-.1.3-.1.5-.2.2 0 .4-.1.6-.1.4 0 .7.1 1 .2.3.1.5.3.7.5.2.2.3.5.4.8.1.3.1.7.1 1V62h-1.8v-4.3c0-.4-.1-.7-.3-.9-.2-.2-.4-.3-.8-.3-.3 0-.5.1-.7.2s-.4.3-.6.5V62h-1.6zM147.3 52.7v1.6h-2.8v7.9h-2v-7.9h-2.8v-1.6h7.6zM149.7 55.3c.5 0 1 .1 1.4.2.4.2.8.4 1.1.7s.5.7.7 1.1.2.9.2 1.4-.1 1-.2 1.4-.4.8-.7 1.1-.6.5-1.1.7c-.4.2-.9.2-1.4.2-.5 0-1-.1-1.4-.2-.4-.2-.8-.4-1.1-.7s-.5-.7-.7-1.1-.2-.9-.2-1.4.1-1 .2-1.4.4-.8.7-1.1.6-.5 1.1-.7c.4-.1.9-.2 1.4-.2zm0 5.6c.5 0 .9-.2 1.1-.5.2-.4.4-.9.4-1.6 0-.7-.1-1.2-.4-1.6-.2-.4-.6-.5-1.1-.5-.5 0-.9.2-1.2.5s-.4.9-.4 1.6c0 .7.1 1.2.4 1.6.3.3.7.5 1.2.5zM157.2 55.3c.5 0 1 .1 1.4.2.4.2.8.4 1.1.7s.5.7.7 1.1.2.9.2 1.4-.1 1-.2 1.4-.4.8-.7 1.1-.6.5-1.1.7c-.4.2-.9.2-1.4.2-.5 0-1-.1-1.4-.2-.4-.2-.8-.4-1.1-.7s-.5-.7-.7-1.1c-.2-.4-.2-.9-.2-1.4s.1-1 .2-1.4c.2-.4.4-.8.7-1.1s.6-.5 1.1-.7c.4-.1.9-.2 1.4-.2zm0 5.6c.5 0 .9-.2 1.1-.5.2-.4.4-.9.4-1.6 0-.7-.1-1.2-.4-1.6s-.6-.5-1.1-.5c-.5 0-.9.2-1.2.5-.2.4-.4.9-.4 1.6 0 .7.1 1.2.4 1.6.3.3.7.5 1.2.5zM163.5 52.4v9.7h-1.8v-9.7h1.8z"/></g><path id="Shape-1" d="M0 0h17.7L35 41.5 52.7 0h17.7L44 62.2H26.2L0 0z"/><path id="VLERICK" d="M59.3 13.6l-3.1.6.4 1 1.7.7-.8 1.8-6.4-2.7.8-1.8 2.6 1.1-1.7-3.3.9-2.1 1.7 3.6 4.7-1-.8 2.1zM52.5 18c-.3.1-.6.2-.8.4-.2.2-.4.4-.5.7-.2.4-.2.9 0 1.3s.5.7 1 .9c.5.2 1 .2 1.4.1.5-.1.8-.4 1-.9.1-.3.2-.6.1-.9 0-.3-.1-.6-.3-.9l1.5-.9c.2.3.4.7.5 1 .1.3.1.7.1 1.1 0 .4-.1.9-.3 1.3-.3.6-.6 1.1-1.1 1.5-.5.4-1.1.6-1.7.7-.6.1-1.3 0-1.9-.3-.5-.2-.9-.5-1.2-.8-.3-.3-.6-.7-.8-1.2-.2-.4-.3-.9-.2-1.4 0-.5.1-1 .3-1.5.5-1.2 1.3-1.9 2.5-2.2l.4 2zm1 9.3l-6.4-2.7.8-1.8 6.4 2.7-.8 1.8zm-4.6-.8c.5.2.8.5 1.1.9.2.4.3.8.3 1.3l2.9-.6-.9 2.1-2.5.5-.3.8 1.9.8-.7 1.7-6.4-2.7 1.3-3c.4-.9.9-1.5 1.6-1.8.5-.3 1-.3 1.7 0zm-2.4 3.6l1.5.7.5-1.2c.1-.3.2-.6.1-.8-.1-.2-.2-.4-.5-.5-.2-.1-.5-.1-.7 0-.2.1-.4.3-.5.6l-.4 1.2zm-2.6 6.2l1 .4 1.3-3.1 1.4.6-1.3 3.1 1 .4 1.5-3.5 1.5.6-2.2 5.2-6.4-2.7 2.2-5.2 1.5.6-1.5 3.6zm2.3 3.9l1.6.7-2.1 4.9-6.5-2.8.8-1.8 4.9 2.1 1.3-3.1zm-2.6 10.5l-7.6-.2.8-2 4.7.3-3.5-3.2.8-2 5.4 5.4-.6 1.7z" fill="#e6e6e6"/></svg>