<svg xmlns="http://www.w3.org/2000/svg" viewBox="0 0 58 58">
  <title>token-key-sailboat</title>
  <g>
    <path d="M58,29A29,29,0,1,1,29,0h0A29,29,0,0,1,58,29" fill="#7fd6dd" fill-rule="evenodd"/>
    <path d="M55.28,29A26.27,26.27,0,1,1,29,2.72h0A26.28,26.28,0,0,1,55.28,29" fill="#0ba6aa" fill-rule="evenodd" opacity="0.8"/>
    <path d="M29,4.69A24.31,24.31,0,1,1,4.69,29,24.32,24.32,0,0,1,29,4.69Z" fill="#7fd6dd" fill-rule="evenodd"/>
    <path d="M43.73,36.73l-3.5,6.52H16.35l-3.29-6.52ZM33.81,12.78c2.16,4.65-.41,21.36-.41,21.36,2-1.43,7.62-8.75,7.62-8.75A32.37,32.37,0,0,0,33.81,12.78ZM17.14,36s8-3.23,14.48-.4c0,0-2.54-20.52,2.34-25.8C33.82,9.88,16,16.3,17.14,36Z" fill="#04838c" opacity="0.2"/>
  </g>
</svg>
