<svg xmlns="http://www.w3.org/2000/svg" viewBox="0 0 58 58">
  <title>token-key-rawmat</title>
  <g style="isolation: isolate">
    <g>
      <g opacity="0.1" style="mix-blend-mode: hard-light">
        <path d="M24.32,42.69a.72.72,0,0,1-.72.72H20.25a.72.72,0,0,1-.72-.72V37.07H14a.72.72,0,0,1-.56-1.18L16.57,32H15.4a.72.72,0,0,1-.57-1.17l3.42-4.33h-.76a.72.72,0,0,1-.58-1.15L21.58,19a.43.43,0,0,1,.7,0l4.67,6.36a.72.72,0,0,1-.58,1.15h-.76L29,30.83A.72.72,0,0,1,28.45,32H27.28l3.18,3.89a.72.72,0,0,1-.56,1.18H24.32Z" fill="#514742"/>
        <path d="M44.23,34.83a.72.72,0,0,1-.65.41H36v7.45a.72.72,0,0,1-.72.72H30.51a.72.72,0,0,1-.72-.72V38.14h.65a1.79,1.79,0,0,0,1.38-2.92l-2-2.39a2,2,0,0,0,.73-.77,1.8,1.8,0,0,0-.2-1.89l-2.37-3a1.84,1.84,0,0,0,.32-2.45L27.06,23l1.08-1.37H26.75a.72.72,0,0,1-.58-1.15l6.12-8.34a.72.72,0,0,1,1.17,0l6.12,8.34A.72.72,0,0,1,39,21.62H37.6l4.67,5.92a.72.72,0,0,1-.57,1.17H39.77l4.37,5.36A.72.72,0,0,1,44.23,34.83Z" fill="#514742"/>
      </g>
      <path d="M58,29A29,29,0,1,1,29,0h0A29,29,0,0,1,58,29" fill="#f4daa7" fill-rule="evenodd"/>
      <g opacity="0.3">
        <path d="M28.26,16.83A12.1,12.1,0,0,0,16.17,28.91c0,6.9,3.66,13.54,10.19,13.54,3.82,0,7.12-.83,9.72-2.95,3.25-2.65,4.92-6.58,5-11.7,0-3.36-.85-6.15-2.64-8C36.31,17.72,32.9,16.83,28.26,16.83ZM38.61,28.3c-1.54,10.27-8,11.8-11.64,11.8-5.42,0-8.35-5.69-8.35-11.05a9.74,9.74,0,0,1,9.73-9.73A11.77,11.77,0,0,1,37,22.94,6.53,6.53,0,0,1,38.61,28.3Z" fill="#f4daa7"/>
        <path d="M29.57,13.28c-.65,0-1.32,0-2,.08C17.4,14.15,12.23,21.65,13,28.59c.87,7.94,4.09,18.22,12.18,18.22a22.41,22.41,0,0,0,13.14-4c4.49-3.35,6.77-8.41,6.79-15.06,0-4.35-1.2-8-3.68-10.45C38.74,14.6,34.5,13.28,29.57,13.28ZM26.12,43.69a9.46,9.46,0,0,1-8.17-4.78,19,19,0,0,1-2.67-10,13,13,0,0,1,13-13c4.89,0,8.52,1.17,10.8,3.47,2,2,2.93,4.81,2.89,8.42C41.83,39.53,33.35,43.69,26.12,43.69Z" fill="#f4daa7"/>
        <path d="M28.36,20.21A8.84,8.84,0,0,0,19.53,29c0,4.92,2.73,9.85,7.57,9.85,7.91,0,10-6.61,10.63-10.73a5.66,5.66,0,0,0-1.4-4.64A10.84,10.84,0,0,0,28.36,20.21Zm6.35,8.91c-.6,3.44-3,6.92-6.56,6.92-3,0-6.14-2.81-6.14-7a6.36,6.36,0,0,1,6.36-6.35,6.93,6.93,0,0,1,5.38,2.1A5.07,5.07,0,0,1,34.71,29.12Z" fill="#f4daa7"/>
        <path d="M30.33,9.18c-.82,0-1.68,0-2.53.1C16.44,10.35,9,17.51,9.24,28.55A27.37,27.37,0,0,0,12.87,41.4c3.09,5.11,8.4,8.51,14.1,8.51s11.85-1.46,17.11-7.1C48,38.59,49.46,32.42,49,25.74,48.27,15.21,41.21,9.18,30.33,9.18ZM25.17,47.71c-8.71,0-12.46-9.85-13.07-19.06a14.33,14.33,0,0,1,4.19-11.27,17.79,17.79,0,0,1,11.23-4.91c.69-.05,1.38-.08,2.06-.08,5.18,0,9.6,1.58,12.46,4.44,2.65,2.65,4,6.33,4,10.92C46,42.48,34.76,47.71,25.17,47.71Z" fill="#f4daa7"/>
        <path d="M28.41,23.5A5.58,5.58,0,0,0,22.9,29c0,2.89,2.32,5.79,5.41,5.79S33.3,32,33.83,29a4.22,4.22,0,0,0-.77-3.6A6,6,0,0,0,28.41,23.5Zm3.65,5c-.36,3-2.08,4.3-3.94,4.3S24.94,30.89,24.94,29a3.37,3.37,0,0,1,3.37-3.37C30.17,25.66,32.35,26.12,32.07,28.46Z" fill="#f4daa7"/>
        <path d="M30.56,5.35c-1,0-2,0-3,.12C12.84,6.63,5.73,15.93,5.55,28.32a30.37,30.37,0,0,0,4.3,15.24A21.8,21.8,0,0,0,26.95,54c6.86.27,13.67-2.05,19.92-8.75,4.67-5,6.38-12.32,5.83-20.24C51.83,12.51,43.46,5.35,30.56,5.35ZM44.72,43.41A23.41,23.41,0,0,1,27,51.24c-4.95,0-12.4-4.53-15.29-9.5-2.41-4.16-3.41-8.43-3.41-14.1A17.78,17.78,0,0,1,13.4,14.77c3.27-3.38,7.71-5.84,14.33-6.36.88-.07,1.76-.1,2.6-.1,11.4,0,18.67,6.58,19.44,17.64C50.26,32.87,48.83,39,44.72,43.41Z" fill="#f4daa7"/>
        <path d="M28.31,25.66A3.37,3.37,0,0,0,24.94,29c0,1.86,1.32,3.73,3.19,3.73s3.58-1.32,3.94-4.3C32.35,26.12,30.17,25.66,28.31,25.66Z" fill="#e3b263"/>
        <path d="M28.36,22.69A6.36,6.36,0,0,0,22,29c0,4.19,3.18,7,6.14,7,3.51,0,6-3.48,6.56-6.92a5.07,5.07,0,0,0-1-4.33A6.93,6.93,0,0,0,28.36,22.69ZM33.83,29c-.52,3-2.52,5.87-5.51,5.87S22.9,31.93,22.9,29a5.58,5.58,0,0,1,5.51-5.54,6,6,0,0,1,4.64,1.87A4.22,4.22,0,0,1,33.83,29Z" fill="#e3b263"/>
        <path d="M28.36,19.32A9.74,9.74,0,0,0,18.63,29c0,5.36,2.93,11.05,8.35,11.05,3.69,0,10.1-1.53,11.64-11.8A6.53,6.53,0,0,0,37,22.94,11.77,11.77,0,0,0,28.36,19.32Zm9.37,8.85C37.11,32.29,35,38.9,27.1,38.9c-4.84,0-7.57-4.93-7.57-9.85a8.84,8.84,0,0,1,8.83-8.83,10.84,10.84,0,0,1,8,3.31A5.66,5.66,0,0,1,37.73,28.16Z" fill="#e3b263"/>
        <path d="M28.26,15.93a13,13,0,0,0-13,13,19,19,0,0,0,2.67,10,9.46,9.46,0,0,0,8.17,4.78c7.23,0,15.71-4.16,15.83-15.87,0-3.6-.94-6.44-2.89-8.42C36.78,17.1,33.15,15.93,28.26,15.93Zm7.82,23.58c-2.6,2.12-5.9,2.95-9.72,2.95-6.53,0-10.19-6.64-10.19-13.54A12.1,12.1,0,0,1,28.26,16.83c4.64,0,8.06.9,10.16,3,1.78,1.8,2.67,4.6,2.64,8C41,32.93,39.33,36.86,36.08,39.51Z" fill="#e3b263"/>
        <path d="M29.57,12.38c-.68,0-1.37,0-2.06.08a17.79,17.79,0,0,0-11.23,4.91A14.33,14.33,0,0,0,12.1,28.65c.61,9.22,4.36,19.06,13.07,19.06,9.59,0,20.79-5.23,20.83-20,0-4.59-1.32-8.27-4-10.92C39.17,14,34.75,12.38,29.57,12.38Zm8.75,30.42a22.41,22.41,0,0,1-13.14,4c-8.09,0-11.31-10.29-12.18-18.22-.76-6.94,4.4-14.43,14.59-15.23.67-.05,1.33-.08,2-.08,4.94,0,9.17,1.32,11.86,4,2.47,2.48,3.69,6.11,3.68,10.45C45.08,34.39,42.8,39.46,38.31,42.81Z" fill="#e3b263"/>
        <path d="M30.33,8.3c-.84,0-1.72,0-2.6.1-6.61.52-11.06,3-14.33,6.36A17.78,17.78,0,0,0,8.32,27.63c0,5.67,1,9.94,3.41,14.1,2.89,5,10.34,9.5,15.29,9.5a23.41,23.41,0,0,0,17.71-7.82c4.11-4.4,5.53-10.54,5.05-17.47C49,14.88,41.74,8.3,30.33,8.3ZM44.08,42.81c-5.27,5.64-11.32,7.1-17.11,7.1s-11-3.4-14.1-8.51A27.37,27.37,0,0,1,9.24,28.55c-.26-11,7.2-18.2,18.56-19.27.86-.08,1.71-.1,2.53-.1,10.87,0,17.93,6,18.67,16.57C49.46,32.42,48,38.59,44.08,42.81Z" fill="#e3b263"/>
      </g>
      <path d="M29,2.72A26.28,26.28,0,1,0,55.28,29,26.28,26.28,0,0,0,29,2.72Zm0,50.6A24.31,24.31,0,1,1,53.33,29,24.32,24.32,0,0,1,29,53.31Z" fill="#b78d51" fill-rule="evenodd" opacity="0.75"/>
      <g opacity="0.25" style="mix-blend-mode: hard-light">
        <path d="M24.32,42.69a.72.72,0,0,1-.72.72H20.25a.72.72,0,0,1-.72-.72V37.07H14a.72.72,0,0,1-.56-1.18L16.57,32H15.4a.72.72,0,0,1-.57-1.17l3.42-4.33h-.76a.72.72,0,0,1-.58-1.15L21.58,19a.43.43,0,0,1,.7,0l4.67,6.36a.72.72,0,0,1-.58,1.15h-.76L29,30.83A.72.72,0,0,1,28.45,32H27.28l3.18,3.89a.72.72,0,0,1-.56,1.18H24.32Z" fill="#514742"/>
        <path d="M44.23,34.83a.72.72,0,0,1-.65.41H36v7.45a.72.72,0,0,1-.72.72H30.51a.72.72,0,0,1-.72-.72V38.14h.65a1.79,1.79,0,0,0,1.38-2.92l-2-2.39a2,2,0,0,0,.73-.77,1.8,1.8,0,0,0-.2-1.89l-2.37-3a1.84,1.84,0,0,0,.32-2.45L27.06,23l1.08-1.37H26.75a.72.72,0,0,1-.58-1.15l6.12-8.34a.72.72,0,0,1,1.17,0l6.12,8.34A.72.72,0,0,1,39,21.62H37.6l4.67,5.92a.72.72,0,0,1-.57,1.17H39.77l4.37,5.36A.72.72,0,0,1,44.23,34.83Z" fill="#514742"/>
      </g>
    </g>
  </g>
</svg>
