<svg xmlns="http://www.w3.org/2000/svg" viewBox="0 0 58 58">
  <title>token-key-wages</title>
  <g>
    <g opacity="0.85">
      <path d="M58,29A29,29,0,1,1,29,0h0A29,29,0,0,1,58,29" fill="#a2cc97" fill-rule="evenodd"/>
      <path d="M55.28,29A26.27,26.27,0,1,1,29,2.72h0A26.28,26.28,0,0,1,55.28,29" fill="#729b65" fill-rule="evenodd"/>
    </g>
    <path d="M29,4.69A24.31,24.31,0,1,1,4.69,29,24.32,24.32,0,0,1,29,4.69Z" fill="#a2cc97" fill-rule="evenodd"/>
    <g opacity="0.25">
      <path d="M37.64,19.39H20.78L34,16.6l1.31-.28.28-.06a1.27,1.27,0,0,1,1.5.94Z" fill="#5d7c52"/>
      <path d="M33.35,15.44,18.47,18.58,29.9,12a1.27,1.27,0,0,1,1.74.47Z" fill="#5d7c52"/>
      <path d="M36.89,35.63a2.55,2.55,0,0,1-2.55-2.55V29.26a2.55,2.55,0,0,1,2.55-2.55H42.7V21.94a1.27,1.27,0,0,0-1.27-1.27H16.59a1.27,1.27,0,0,0-1.27,1.27V40.4a1.27,1.27,0,0,0,1.27,1.27H41.42A1.27,1.27,0,0,0,42.7,40.4V35.63Z" fill="#5d7c52"/>
      <path d="M43.89,28h-7a1.27,1.27,0,0,0-1.27,1.27v3.82a1.27,1.27,0,0,0,1.27,1.27h7a1.27,1.27,0,0,0,1.27-1.27V29.26A1.27,1.27,0,0,0,43.89,28ZM38.52,32.6A1.43,1.43,0,1,1,40,31.17,1.43,1.43,0,0,1,38.52,32.6Z" fill="#5d7c52"/>
    </g>
  </g>
</svg>
