<svg xmlns="http://www.w3.org/2000/svg" viewBox="0 0 837.7 741.6"><path d="M0 0h210.4L417 494.4 627.4 0h210.4L524 741.6H311.8L0 0z"/><path d="M706.7 161.9l-36.6 7.2 5.3 11.5 19.8 8.4-9 21.2-76.7-32.6 9-21.2 31.1 13.2-19.8-39.6 10.7-25.2 20.7 43.1 56.4-11.5-10.9 25.5zm-81.2 52.8c-3.9 1.1-7.2 2.7-9.9 4.7s-4.7 4.8-6.2 8.3c-2.3 5.3-2.2 10.5.3 15.6s6.5 8.9 12.2 11.3l.2.1c5.8 2.5 11.4 2.8 16.8 1 5.4-1.8 9.2-5.3 11.5-10.6 1.6-3.7 2.2-7.3 1.7-10.5-.4-3.3-1.7-6.9-3.7-10.7l18.2-11.2c2.5 4.1 4.3 8.1 5.5 12.1 1.2 3.9 1.6 8.4 1.3 13.5-.3 5.1-1.6 10.3-3.9 15.7-3.1 7.2-7.6 13.1-13.6 17.7s-12.7 7.3-20.3 8.3c-7.6 1-15.1-.2-22.6-3.3l-.2-.1c-5.5-2.3-10.3-5.6-14.3-9.7s-7.1-8.7-9.1-13.8c-2-5.1-3-10.5-3-16.4.1-5.9 1.3-11.7 3.7-17.4 5.9-14 15.9-22.6 29.8-25.7l5.6 21.1zm11.8 110.8L560.6 293l9.1-21.4 76.7 32.6-9.1 21.3zm-55.2-10.3l.2.1c5.7 2.4 9.9 5.8 12.7 10.3 2.8 4.5 4.2 9.6 4.2 15.5l34.5-6.9-10.4 24.6-29.8 5.6-.1.2-3.9 9.1 23.2 9.9-9 21.2-76.7-32.7 15.4-36.3c4.8-11.2 11.1-18.3 18.9-21.4 6.4-2.6 13.3-2.3 20.8.8zm-27.7 43.5l18.5 7.8 5.9-14c1.5-3.6 1.9-6.7 1.1-9.4-.8-2.7-2.6-4.7-5.4-5.8l-.3-.1c-3-1.3-5.6-1.2-8 .1-2.4 1.4-4.4 3.9-5.9 7.5l-5.9 13.9zM523 431.9l11.6 4.9 15.6-36.8 16.8 7.1-15.6 36.8 12.1 5.2 17.5-41.2 18.1 7.7-26.4 62.2-76.7-32.6 26.2-61.7 18.1 7.7-17.3 40.7zm27.2 47l18.6 7.9-24.8 58.4-76.7-32.6 9-21.2 58.1 24.7 15.8-37.2zm-30.4 124.8l-90.4-1.7 10.1-23.8 55.9 3.2-41.2-38.1 9.9-23.3 64 63.9-8.3 19.8z" fill="#e6e6e6"/></svg>