<?xml version="1.0" encoding="utf-8"?>
<!-- Generator: Adobe Illustrator 22.1.0, SVG Export Plug-In . SVG Version: 6.00 Build 0)  -->
<svg version="1.1" id="Layer_1" xmlns="http://www.w3.org/2000/svg" xmlns:xlink="http://www.w3.org/1999/xlink" x="0px" y="0px"
	 viewBox="0 0 51 373" style="enable-background:new 0 0 51 373;" xml:space="preserve">
<style type="text/css">
	.st0{fill:#981D97;}
</style>
<path class="st0" d="M1.5,372.9L0,367.1C28.9,360,24,310.2,19.6,266.3c-2.4-24.3-4.5-45.2-0.7-57.1c3.6-11.3,13.2-18.9,19.1-22.7
	c-5.9-3.7-15.5-11.3-19.1-22.7c-3.8-11.9-1.7-32.9,0.7-57.1C24,62.8,28.9,13,0,5.9l1.4-5.8C16.8,3.9,25.6,17.2,28.1,41
	c2.1,19.8-0.4,44.5-2.5,66.3c-2.3,22.6-4.4,44-1,54.7c4.5,13.9,20.5,21.7,20.7,21.8l5.7,2.7l-5.7,2.7c-0.2,0.1-16.2,7.9-20.7,21.8
	c-3.4,10.7-1.3,32.1,1,54.7c2.2,21.8,4.7,46.5,2.5,66.3C25.6,355.8,16.8,369.1,1.5,372.9z"/>
</svg>
